<?xml version="1.0" encoding="utf-8"?>
<!-- Generator: Adobe Illustrator 26.5.2, SVG Export Plug-In . SVG Version: 6.00 Build 0)  -->
<svg version="1.1" id="Layer_1" xmlns="http://www.w3.org/2000/svg" xmlns:xlink="http://www.w3.org/1999/xlink" x="0px" y="0px"
	 viewBox="0 0 798 600" style="enable-background:new 0 0 798 600;" xml:space="preserve">
<style type="text/css">
	.st0{fill-rule:evenodd;clip-rule:evenodd;fill:#FCF5E5;}
</style>
<path class="st0" d="M-1,80c266.64,0,533.36,0,800,0c0,13,0,501.3,0,514.3c-1.98-0.25-3.19-1.51-5.5-1c-2.07,0.46-4.4,3.34-8,2
	c-1.36-0.51-0.95-1.54-3-2c-4.89,6.42-17.79,5.44-26.5,3.5c-5.32-1.19-7.8,2.7-12,1.5c-2.14-0.61-2.77-3.33-5-2.5
	c-2.85,0.74-2.95,2.35-7,2.5c-0.38-0.47-4.14-3.87-4.5-4c-2.58-0.95-6.56,0.99-8.5-0.5c-0.77-0.59-1.98-3.18-2.5-4
	c-3.34,2-12.86,4.71-19,3c-2.28-0.64-3.53-4.02-7-3c-0.5,0.5-1,1-1.5,1.5c-3.67,0-7.33,0-11,0c-2.35,0.69-6.89,2.41-9,3
	c-2.5-0.33-5-0.67-7.5-1c-4.04,1.34-3.78,4.88-11,5c-2.2-3.01-4.07-1.43-8.5-2.5c-0.24-0.06-0.98-1.08-1.5-1
	c-1.27,0.21-2.03,2.1-4.5,1.5c-2.46-0.6-4.02-3.43-6-4c-2.46-0.7-5.95,1.17-8.5-0.5c-1.28-0.84-2.55-3.35-4-4
	c-1.67-0.17-3.33-0.33-5-0.5c-0.67-0.67-1.33-1.33-2-2c-2.11-0.57-2.42,1.15-3.5,1.5c-2.5,0-5,0-7.5,0c-1.21,0.37-2.32,1.94-4.5,1.5
	c-2.48-0.5-3.35-2.81-5-3.5c-2.5,0.17-5,0.33-7.5,0.5c-0.65-0.16-2.54-1.4-3-1.5c-2.5-0.57-6.47,1.45-8,2c-2.33,0-4.67,0-7,0
	c-3.38,1-8.08,1.09-11.5,2c-3,0.17-6,0.33-9,0.5c-2.08,0.81-5.33,2.93-7.5,3.5c-4.59,1.21-14.06-4.52-17.5-4
	c-8.55,1.3-15.2,5.69-23,7c-4.57,0.77-8.7-2.71-14-1c-2.8,0.9-3.69,2.42-8,2.5c-0.08-0.11-14.33-8.95-14.5-9
	c-2.58-0.77-9.65,1.13-13.5,0.5c-1.74-0.29-1.17-2.03-3.5-1.5c-0.5,0.5-1,1-1.5,1.5c-4,0-8,0-12,0c-0.5,0.67-1,1.33-1.5,2
	c-2.64,1.62-6.87,0.75-9.5,0c-2.67,0-5.33,0-8,0c-2.85-0.9-13.67-4.71-16-1c-1.17,1.53-0.92,3.42-1.5,4.5c-0.59,0.4-0.84,0.39-2,0.5
	c-2.2-2.12-7.9,1.79-10,1c-1.47-0.55-1.55-1.89-4.5-2c0,0.33,0,0.67,0,1c0.38,0.54,0.3,0.47,0.5,1.5c-1.02,0.36-2.34,0.5-4,0.5
	c-0.57-0.73-1-1.1-1.5-2c-3.66,2.89-16.4,7.38-24,5c-1.62-0.51-1.68-2.65-4.5-2c-0.33,0.33-0.67,0.67-1,1
	c-4.17-0.17-8.33-0.33-12.5-0.5c-1.51,0.61-5.57,3.47-9,2.5c-0.5-0.5-1-1-1.5-1.5c-2.5-0.17-5-0.33-7.5-0.5c-0.5-0.5-1-1-1.5-1.5
	c-2.69-1.05-5.18-0.02-7.5-1c-1.64-0.7-2.62-2.48-4.5-3c-4.17-0.17-8.33-0.33-12.5-0.5c-0.95-0.28-1.86-1.73-2.5-2
	c-2.83,0-5.67,0-8.5,0c-1.54,1.96-6.58,5.23-9,6c-5-0.17-10-0.33-15-0.5c-0.33,0.5-0.67,1-1,1.5c-5.85,2.65-14.46-3.29-18-5
	c-2.54-1.22-3.66,1.55-6,1c-3.34-0.78-7.41-3.67-11.5-4c-3.64,5.08-8.57,0.25-13.5-0.5c-4.9-0.74-8.3,4.77-14,2.5
	c-2.63-1.05-6.4-4.41-11.5-3c-3.15,0.87-6.27,4.12-9.5,5c-2.91,0.8-5.88-1.01-8-1.5c-5.65-1.29-8.43,2.65-13,1.5
	c-2.04-0.51-3.28-2.32-5-3c-2.59-1.03-4.61-0.72-7-2c-0.67-0.67-1.33-1.33-2-2c-4,0-8,0-12,0c-0.79-0.27-1.71-1.73-2.5-2
	c-2.29-0.77-15.79-0.72-17.5,0c-1.28,0.54-3.72,2.52-5.5,3c-2.61,0.71-3.51-0.84-6-1c-0.99,1.59-2.28,2.68-3.5,4
	c-5.54,0.05-10.71-0.62-15-1c-1.06,1.72-1.69,2.41-4.5,2.5c-1.01-1.06-1.47-1.33-3.5-1.5c-0.99,1.42-1.51,1.51-4,1.5
	c-1.99-1.97-3.64-0.51-7-1.5c-1.85-0.55-7.21-5-10-4c-0.65,0.23-2.02,1.86-3,2c-2.53,0.36-3.82-3.57-7-2c-3.89,1.92-6.71,5.65-12,6
	c-6.72-5.98-12.79,1.04-18,2C-1,580.97-1,92.83-1,80z"/>
</svg>
