<?xml version="1.0" encoding="UTF-8"?><svg id="Layer_1" xmlns="http://www.w3.org/2000/svg" viewBox="0 0 1477.61 937.34"><defs><style>.cls-1{stroke-width:2px;}.cls-1,.cls-2,.cls-3{stroke:#cecdcc;}.cls-1,.cls-3{fill:none;}.cls-4{fill:#e49569;}.cls-4,.cls-2,.cls-5,.cls-6{stroke-miterlimit:10;}.cls-4,.cls-5,.cls-6{stroke:#998f8c;}.cls-2{fill:#fff;}.cls-5{fill:#c0c4bf;}.cls-6{fill:#82ae9a;}</style></defs><path class="cls-2" d="M1024.13,736.66l.64-11.63-1.43-1.91-2.71-1.11-3.98-4.46,.8-4.62,77.73-8.12-1.11-3.5-2.39-2.39-.8-2.23,.96-10.03-3.82-9.08,.8-4.14,.48-5.89,3.5-6.05-.32-1.75-2.71-1.59v-5.1l-2.87-3.03-4.62-9.72-20.55-72.95-72.79,6.37,2.07,3.19-2.07,106.71,7.01,52.88,1.43-.8,2.07,.16,.96,.64,1.27-.16,3.19-6.05v-3.66l1.75-1.75,2.23,.8,5.42,10.19v1.43l-5.26,3.5,5.57-.64,7.8-2.55,1.75-.96Z"/><path class="cls-2" d="M25.17,903.26h3.82l1.11,1.11-1.59,1.91-3.03,.32-3.98,2.07-5.89-.16,3.5-1.43,.48-1.75,3.98-.48,1.59-1.59Zm13.22-2.71l2.07,.8h1.43l.8,1.91,.48-.96,1.43,.32,1.75,2.39v.8l-6.69,3.03-3.82-.16-1.59-.8-1.75,1.11h-3.19l-1.75-2.23,7.49-.8,3.34-5.42Zm8.6-.16l1.59,.16,1.11,1.11v1.59l-2.07,.16-1.43-1.75,.8-1.27Zm3.98,.48l2.07-.16-.16,1.59-1.75,.96-.16-2.39Zm.48,3.5l5.42-.16,.32,1.75-2.07,.16-.48-.8-1.27,.96-.64-.96-1.43-.32,.16-.64Zm264.87,12.1l3.34,.16-1.59,3.03-1.75-.16-.64-1.27,.8-2.07m-1.75-4.62l.96-2.07-.32-3.66,3.82-.8,7.17,7.01,2.07,5.42,3.03,2.55,.48,8.12h-2.23l-2.07-3.66-4.94-3.82h-.96l1.75,4.46,2.71,.32,.32,3.34-1.43,.16-6.53-7.01-.16-1.43,3.03-1.59v-1.59l-.8-1.27-2.55-.96-2.71-2.07,2.23,.16,.8-.64-.96-1.43-.96,.8-1.75-.32Zm-5.73-14.49l2.07,.16,3.82,3.98-.32,1.27-1.27-.16-.16,2.87,.8,.8v2.39l-1.27,.48-.64,1.91-1.27-.64-.64-3.5,1.75-2.23-3.34-3.5,.16-1.91,.32-1.91Zm2.39-2.39l3.03,.32,3.98,.16,5.42,5.1-.32,.8-1.75,.96-1.75-.32-.16-1.11-1.91-2.55-.48,1.11,1.59,2.07-.32,1.91-1.27-.16-2.07,.32-.16-2.71-4.14-4.46,.32-1.43Zm-20.23-14.18l1.43-.64h2.55l1.11-.8,6.53,3.5,.16,2.39-.8,.8h-1.27l-2.23-1.11,1.75,2.07h2.87l.8,3.19h-1.43l-3.5-2.39-1.75-.32,.96,2.07,.16,1.43,1.27-.96,2.71,1.91,2.07-.16-.32,1.27,3.03,6.85v5.42l.64,3.34-1.27,.48-1.91-3.19-.8-2.39-2.55-2.55-.32-4.3-.96-2.71h-1.11l.48,1.75v.8l-2.23,1.59,.16-5.26-2.55-2.55-2.07-3.66-1.91-1.91,.32-3.98Zm11.47-3.66l1.75,2.87,3.82-.16,1.59,3.34-.96,.96,3.19,5.1v2.07l-1.91,1.27v1.11l-3.19,3.03-.8-2.23-.16-2.07,.96-1.11v-1.75l-2.39-3.03-.8-5.89-1.43-2.39,.32-1.11Zm-90.31-29.15l-6.37,6.53v2.55l3.34-1.27,1.27-3.03,3.5-3.82-1.75-.96Zm-50.33,26.44v.96l2.87,1.91,.32-2.23,.96,1.43,5.57,.16,1.11-.96,.32-2.87-.8-1.11h-2.23v-1.27l.64-.96v-.64l-2.39-.48-5.26,5.73-1.11,.32Zm-12.9,9.88l2.39,9.24h3.34l3.82-3.98,.48,1.91,10.03-6.37,1.11-1.59-1.59-1.75v-1.11l.8-2.07-1.43-.16-3.19,1.59v-1.91l-4.3-.96-3.82,.48-.32,5.42-1.27-3.19-2.39-.16-1.59,.96-2.07,3.66Zm-3.5,13.06l.16-1.11,3.34-2.07,.96,.48,2.07,.32,2.07,1.91-3.5-.32-.64-.96-1.59,.96-2.87,.8Zm-8.28,5.26l-1.75,1.27,2.39,2.23,1.27-1.11-.16-2.07-1.75-.32Zm-10.03-12.58l2.23,.16,.64,.96-2.87,.16v-1.27Zm-22.14,18.95v.8l1.11,.16-.16-.96h-.96Zm-.64-5.1l-1.59,1.59v.8l1.11,1.75,1.59-1.59-1.11-.16v-2.39Zm-3.19-1.27l-.48,1.59-2.07,.16-.64,.32v2.07l-.8,1.43h.96l1.11-1.43,1.27-.16,1.43-1.59,.32-2.07-1.11-.32Zm-7.01-3.19l-.32,2.87,2.23,1.27,1.91-.96v-1.59l2.71-.48-.16-.96-1.43-.32-1.11,.96-1.43-.8h-2.39Zm-7.8-.16l1.59,1.11-.48,1.91-2.23-1.75,1.11-1.27Zm-6.69,2.07l2.23,.16-1.11,1.27-1.11-1.43Zm-5.57,4.78l2.87,1.75-2.71,.16-.16-1.91Zm-40.46-49.69l1.91,.96-1.27,.96-.64-1.91Zm-1.11-10.03l.64,1.91,1.27-1.91h-1.91Zm38.7-30.74l2.39-.16,1.43,.64,1.75-.8,2.07-.16,2.55,1.27,1.27,3.03-.16,1.43-1.91,3.19-3.82-.32-3.34-2.87-1.59-.64-1.75-3.19,1.11-1.43Zm-33.61-22.94l.16,3.03,3.19,3.19v.8l-1.27-.32-2.71-1.27-.48-1.75-.48-2.55,1.59-1.11Zm29.15-37.11v1.91l3.03,2.87h3.66l.96,1.75v2.55l3.34,3.03,2.87,1.91-.16,1.11-1.11,1.75-2.23-1.91-3.34,.16-1.27-1.27-1.43-3.34-2.39-3.5-4.14-.16-1.59-1.11,1.59-3.34,2.23-2.39Zm26.76-7.17h1.59l.16,1.75h-1.59l-.16-1.75Zm25.8,31.38l1.43,.16v1.91l-2.71-.8,1.27-1.27Zm203.55,123.76l-1.91,.64-.16,1.75h1.91l.16-2.39Zm-251.02-7.17l-2.07-.64-6.53,.96-4.46,2.23-.16,3.03,3.03,1.11,2.39-1.43,2.71-.16,7.49,2.23,.16-2.07-2.55-1.75v-3.5Zm3.34,3.66l-.64-2.23,1.91,.32,.16,2.23h2.87l.64-3.98,.48,3.82,3.98-.16,5.1-5.26,1.27,.16-1.11,2.07,2.23,1.43,6.69-.32,4.14-1.91,2.23-.16,.48,2.39,.96-.8,.64-2.23,9.4,.32,3.03-2.55-2.07-1.75,.96-1.91,4.14,.32-.32-1.91,3.98,.32,1.11-1.75,1.75,.32,7.33-3.03,.32-2.71,8.92-3.82,3.19-3.03,1.91-.96,2.07,1.27,3.66-1.43,1.75-3.03,.8-2.07,2.71-1.43,2.39-1.11,.64-2.23-1.75-2.71-3.5-.32-.32-2.07,1.27-2.55,2.23-.32,2.07-2.39,3.03-.16,5.42-5.1,.64-2.23,2.39-3.66,6.05-6.53,3.98-1.43,3.03-1.43,3.34,1.27,2.23,4.14h-2.39l-2.23-2.39-4.78,3.19-2.71,.16-.32,4.94-4.94,7.8,.96,3.19h3.66l-.96,1.59-2.23,.16-3.82,2.87v1.43l3.03,1.59,5.42-.96,2.23-2.71,2.23,.16,4.78-2.71,.8-3.66,2.55-.16,10.03,1.27,1.59-1.75,1.59-7.17-2.55,1.75,.96-3.5-2.55-2.23,1.27-2.39,.16,2.39h5.42l1.11-1.59,2.55-.16-.48,2.71,3.03,.16-3.03,2.07,6.53,1.75-5.57,.64-2.07,1.91,1.43,2.23,7.33-2.71,3.66,2.71,1.11-1.43,.96,2.23,6.37,3.66h4.62l6.21-.8,6.85,1.75,3.19,3.03,7.17,.64,2.87-2.39,1.27,3.82-2.87,1.11,1.91,1.91,11.79,6.05,2.23,3.98,8.6,6.53,5.26-3.19-.96-3.5-5.57-3.19,4.94,1.91,.8-1.11,1.43,2.07v4.3l3.34-.96,3.34,2.87-3.98-15.61,1.91,2.07,2.23,9.56,3.5,3.98,3.82-.64,2.87,5.57h1.43l.96,8.92,5.42,.8,2.55,3.5,2.87,1.75,.64,4.46-2.87,4.14,4.62,2.55,1.91-3.82-.32,4.94-1.27,1.43,2.23,2.71,1.11-3.82-.32-1.91,1.27,.32,.96,3.66-1.59,2.23,.96,4.14,.8,.64,.48-2.55,1.11,.96-.48,3.19,1.91,.32-.64,1.43,2.71-.16v-1.59h-1.59l.16-2.71-1.27-.96,2.71-.48,.8-1.27v-2.55l.8,2.07-.96,2.87,1.91,6.21,2.87,.16,3.5-6.69,.16-3.03-2.07-6.37-.16-1.91,.8-1.91-1.11-1.11-2.71,.16-3.98-3.19h-2.71l-3.19-2.23h-2.39l-.8-2.55-2.23-.48-.32-2.39-1.59-.8,.16-2.71-8.12-11.79-2.87-2.39v-1.91l-6.85-5.57-1.11-1.75-2.55-3.19-3.03-.96v-3.5l-1.91-2.07-2.71-1.11-3.34,2.07-2.55,3.34-.64,3.82-2.39,.16-3.98,4.3-1.27-.48v-3.98l-3.82-3.5-3.66-3.19-.8-3.19-3.98-2.07,.32-3.5-4.46-.16-1.11,1.75h-1.91l-1.11-1.11-1.91,1.27-2.87-1.91v-136.66l-10.99-6.53-2.87-.8-3.5,1.75-3.5,.16-3.66-2.55-6.85-.96-9.24-5.73-9.08-.64-3.19,.8-.32-2.87-2.87-1.11,1.75-1.59-.32-1.43-5.1-1.75h-3.82l-.64,.64-1.43-.96,.16-4.14-1.27-1.43-3.98,4.62-1.27-.16v-1.27l2.71-1.27v-1.27l-3.03-3.82-1.75-.16-7.17,4.94h-6.21l.64-1.43-2.87-.16-8.28,5.42h-2.87l-.96-1.27-4.3,2.39-5.73,5.89-4.46,4.3-2.39,1.91-4.14,.16-3.5-.64-3.66-2.07h0l-4.46,6.21-.16,3.82,4.14,3.82,3.34,7.17,.32,8.44,4.62,3.19,5.42,.64,1.11,1.27-2.39,3.66,1.11,4.3-2.71-4.14v-3.82l-2.39-.48,.16,1.91,1.11,3.34,4.62,5.89h-2.23l-3.5,1.75-9.87-3.98-.16-3.19,2.23-2.07v-2.23l-3.34-.8-3.66,.32-7.65,.32,2.39,3.66-3.03-2.87-13.38,1.91-1.27,2.39,7.8,7.49-1.27,2.23-.48,3.19-1.11,1.27-.16,3.03,7.01,5.73,6.53,.32,7.33,3.03h3.19l1.27-.96,6.05,.16,.16-1.27,1.91,1.75,.16,3.19-3.98-.16,.16,5.26,.8,5.1-4.62,4.3-3.03-.16-3.19-1.27-1.59,.16-4.94,3.34-2.71,.32-2.23-4.46h-4.94l-3.5,3.19-.8,2.87-5.26,2.87-8.44,6.85-.48,4.94,1.11,3.5,1.59,1.91,1.59-.64,1.43,1.59-1.27,.96-2.39,1.43,1.75,2.39-4.14,1.75,1.27,3.5,2.71,3.66,1.27,6.53,6.37,2.39,4.14-1.27,2.71-1.75,.8,3.34,.48,7.01-3.03,2.23v7.01l-.96,1.43h-2.71l2.71,1.91,3.34-.16,.64-1.59,7.33-.96,3.19,4.14,2.07-1.11,2.07,8.12,1.59,.8,1.59-1.11,.16-3.82,1.43-1.59,1.11,1.75,.32,2.55,2.55,.64,7.49-1.91,.32,1.91-3.19,1.75-2.55,2.71-4.46,11.15-6.85,3.19-2.23,2.39-.48,2.23-1.59-.96-14.81,5.26-2.87,6.53-2.07-.64,.8-1.75-2.39-2.23-5.57-.32-8.44,5.1-3.5,2.07h-3.66l-.8,3.82,2.71-.16Z"/><path class="cls-2" d="M222.35,609.56l4.78-3.5,1.27-3.82-1.59-2.55-2.87-.32-1.75-2.55,1.75-10.99,2.55-.48,3.82-5.1,2.55-11.15,3.82-5.73,7.65-2.71,2.07-2.07-.64-3.03-3.66-3.98-1.91-9.24-2.23-2.87-2.07-5.42,1.43-3.34,2.23-4.78,.8-4.62-.8-7.8,1.59-21.66,5.57-.96,5.89,2.23,1.91,4.3h3.19l3.82-4.62,5.42-27.87,73.58,13.06,63.71,9.56-27.71,197.66-59.41-8.6-102.25-59.73,.8-4.62,3.19-2.87,3.5,.16Z"/><path class="cls-2" d="M930.48,576.75l1.43-3.5,1.91,.8,1.11-1.59-1.27-1.11,.48-2.39-1.75-1.43,.96-1.59-.16-2.39-1.75-.16,1.27-1.27,2.07,1.27,.48-2.23-.64-1.75,.16-1.11,3.19,.96-.64-2.39,2.55-2.07-.8-1.43-1.75,.16-.96-1.43,1.43-1.43,2.55-.32,.8-1.27,2.23-.32-.16-1.27-1.43-1.43v-.8h2.39l.64-1.11-2.23-1.59-.16-.96-17.84,1.27,4.46-8.12,2.71-2.39v-3.5l-2.55-3.98-63.39,3.19-62.28,1.11,6.53,38.86-1.11,62.12,4.14,3.66,4.46-2.07,5.1,1.27,.32,18.95,83.3-2.07,1.91-2.39,.8-4.78-2.39-3.66-.8-3.5,1.43-1.11v-1.27l-2.71-1.75-.16-1.11,2.55-1.43-1.91-1.75,2.71-11.31,5.42-2.55v-1.27l-1.75-2.23,4.62-8.6h3.03l2.39-1.91-.48-8.28,4.94-7.17,2.87-.96-.8-4.94,2.55-1.11Z"/><path class="cls-2" d="M110.54,574.52l5.42,8.28-2.23,.16-2.87-3.03-.32-5.42Zm3.03-15.61l2.87,6.53,4.14,1.59,1.11-.96-2.07-3.98-4.14-3.82-1.91,.64Zm-31.7-30.26v3.82l3.19,1.91,7.01-.32,1.59-1.59-4.94-.32-6.85-3.5Zm-9.4,.16l5.26,.8,2.23,3.5h-6.05l-1.43-4.3Zm76.29,72.47l-1.59-4.78,.32-4.78-.64-12.58-2.87-7.65-1.91-2.23-.96-2.39-11.15-13.7-5.73,.16-3.19-3.03,1.75-2.87-1.11-5.89-3.5-1.91-6.21-.96-4.46-2.07-2.39-3.03-7.17-10.51-4.3-3.5-5.89-.8-4.94-3.66-7.49-2.39-4.46-.48-3.98-3.98,.32-4.46,1.27-7.65,2.87-8.12-2.23-2.55-6.37-14.97-4.3-5.89-.64-4.78-2.55-3.66,.32-3.98-3.19-7.96-4.62-4.3,.96-11.31,3.82-1.27,2.87-4.94-.64-5.1-1.59-1.43h-3.98l-3.98-5.26-2.39-5.57v-11.95l1.91-6.69,.32-3.34,3.98,.32-.16,2.55-1.27,1.11v3.98l5.89,5.1v-7.49l-2.23-5.42,.8-1.75-1.59-2.71,4.46-2.39-3.03-4.78-2.23,.8-2.39,6.05,.8,2.07-1.27,1.59-1.43-.16-8.6-9.72,1.11-8.92-1.75-6.21-10.35-20.39,1.27-17.04,3.66-5.73,.32-10.19-8.76-17.68,.48-8.28,10.99-11.95,2.71-3.82-.16-2.23,6.37-14.65,.16-13.38,1.43-3.98,105.28,29.62-26.12,100.5,1.75,5.57,112.13,167.24-1.43,3.34,2.07,5.42,2.23,2.87,1.91,9.24,3.66,3.98,.64,3.03-2.07,2.07-7.65,2.71-3.82,5.73-2.55,11.15-3.82,5.1-2.55,.48-1.75,10.99,1.75,2.55,2.87,.32,1.59,2.55-1.27,3.82-4.78,3.5-3.5-.16-70.08-8.12Z"/><path class="cls-2" d="M596.64,507.15l-26.28-1.59-82.34-7.65-83.78-10.35,18.32-140.64,71.51,9.08,59.73,5.42,52.72,3.82-2.23,35.2-7.65,106.71Z"/><path class="cls-2" d="M1391.26,277.16l.64-1.75-5.1-19.59-.16-.48-23.73,5.42v1.11l-1.43,.48-.8-1.11-16.72,3.82,4.46,25.96,2.87,2.39-5.57,5.42,2.71,3.5,8.6-7.17,2.71-2.07h1.27l3.82-4.94,2.23,.16,4.62-1.75h3.34l8.44-4.3,4.46-1.43,1.59-1.59,2.39,.8-.64-2.87Z"/><path class="cls-2" d="M1309.55,353.13l-2.55,.48-2.39,1.75-1.91,3.34,12.1,43.16,17.36-3.66-3.5-12.1-1.75,.8-5.26-4.14-.8-2.71-2.87-1.59-.32-5.89-3.34-3.5-1.75-1.27-1.91-1.75-.64-5.1,.48-3.34,1.59-3.5-2.55-.96Z"/><path class="cls-2" d="M1197.26,701.15l-6.37-1.11-2.71-1.43-3.5,2.23v3.98l2.23,3.34-.8,6.85-3.34,.96-1.59-1.75-.96-5.1-79.8,5.26-5.26-9.56-77.73,8.12-.8,4.62,3.98,4.46,2.71,1.11,1.43,1.91-.64,11.63-1.75,.96,.8,.64,1.59-.48,1.11-1.27,16.72-4.3,14.65-.8,12.9,3.03,13.54,7.96,3.82,1.27,3.5,3.19-.16,4.3h3.82l3.03-1.59,3.98,.16,3.19-1.27,4.62-3.19,4.94-4.62,1.75-.64,.96,.8h2.23l.8-1.27-.8-1.91-.96-.96,.32-1.27,3.19-1.75,7.96-.64,1.27,1.59,1.59,.16,3.66,1.59,4.78,2.87,1.91,2.71,1.75,1.91,4.46,2.23v3.82l4.46,3.03,1.59,.16,2.55,2.23,1.11,2.55,1.59,.32,1.27,3.34,1.11,.96,1.59-1.75,4.62,.16,.8,2.23,1.75,1.43v2.07l4.62,3.5,.32,15.29-2.87,9.24,1.59,1.91-.32,5.42-1.27,2.23,1.11,1.91,3.66,3.66,.48,2.39,1.27,1.59-.64-3.03,2.07-.96,1.27-5.73-4.78-1.91,.16-.96,4.14-.64,1.43,4.14,1.75,.96,.16-3.19,1.75,.48,.96,1.27-.16,1.11-4.62,6.69-.32,1.75-2.71,3.03v1.75l5.89,6.05,8.44,12.58,2.87,3.34v2.87l4.46,7.33,3.66,.96,1.11-1.91-3.34,.48-4.78-7.17,.32-2.23,2.39-1.27v-2.39l-.96-2.07,1.43-1.43,.64,1.43,1.11,.8v6.37l-1.91-.96-1.27,1.43,2.23,2.55,1.59,4.14,1.91-.96,3.66,1.91,3.34,3.5,2.55,8.12,4.94,7.65,1.27-2.07,4.46-.8,5.1,2.07,.48,2.71,5.26,6.05,.16,1.75,3.5,4.3-1.11,.8v4.3l4.3,2.23h2.39l4.3-2.87,2.39,.48,1.75,.64,3.66-2.71,.32-1.11,1.91,.48,3.82-2.71,2.07-3.66-1.11-5.1-.32-2.07,1.75-6.37,.96-.32,.96,2.55,1.27-2.87-1.27-11.47-.64-16.72-1.59-10.83-1.11-2.71-10.51-17.68-8.28-14.49-3.5-5.26-2.07-5.73-.32-5.42,1.43-.48v-1.43l-1.75-3.5-6.37-6.37-12.1-15.45-9.08-16.56-6.85-17.04-.96-5.89-1.91-1.59-.8-6.05-5.73,.48Zm14.65,214.22l2.71-.16-1.11-1.59-1.59,1.75Zm11.63-1.75v-1.11l2.55-.32,5.89-5.26,2.39-.96,3.82-1.43,.48,2.07,2.71,1.27-4.14,1.91h-3.82l-6.21,3.98-3.66-.16Zm27.4-12.1l-4.78,2.23-1.59,2.07,1.75,.16,4.62-4.46Zm6.05-4.62l-1.75,.48-2.23,3.19,1.75-.32,2.39-2.55-.16-.8Zm13.22-25.01l-2.71,8.92-1.27,1.59-1.59,4.14-1.91,2.55-1.11,2.71-3.03,3.5v1.43l4.3-4.46,3.82-5.57,.96-3.19,3.34-7.8-.8-3.82Z"/><path class="cls-2" d="M1213.35,651.77v2.23l-6.69,9.88-1.91,.32,2.39,.8v3.19l-1.43,1.75-.96,9.56-3.66,9.88,.8,3.19,1.11,8.12-5.73,.48-6.37-1.11-2.71-1.43-3.5,2.23v3.98l2.23,3.34-.8,6.85-3.34,.96-1.59-1.75-.96-5.1-79.8,5.26-5.26-9.56-1.11-3.5-2.39-2.39-.8-2.23,.96-10.03-3.82-9.08,.8-4.14,.48-5.89,3.5-6.05-.32-1.75-2.71-1.59v-5.1l-2.87-3.03-4.62-9.72-20.55-72.95,36.47-4.62,34.08-4.78-.16,3.03-3.03,1.59-2.23,5.1,.32,2.07,9.72,6.05,4.14-.48,4.94,6.37,.64,2.71,6.69,8.12,4.14,2.71,2.23,.32,3.5,2.55,1.75,3.5,3.19,2.55,2.87,.8,4.3,4.3,.16,2.23,4.14,4.46,7.96,3.66,5.73,10.67,.48,4.3,6.21,3.34,3.98,7.65,1.27,4.94,6.69,.64,1.43,.64Z"/><path class="cls-2" d="M504.9,874.12l-.32,5.1,2.71,3.03,.16,1.91-7.65,7.17-.16,1.91,3.03,5.1,2.71,6.69v4.14l-.8,1.91,.16,5.42,6.53,3.34,1.75,1.75,1.91-1.75,3.34-5.73,7.17-4.62,5.26-.8,3.98-1.59,2.71-1.91,5.1-5.57-4.46-1.75-2.23-2.23,.16-2.71-.8-.96h-3.19l.32-3.98-1.11-1.91-4.14-3.66-7.17-3.03-4.46-.32-5.26-4.3-1.91-.96-3.34,.32Zm-24.37-27.08l-1.75,2.39-.16,2.71,4.3,3.82,3.03,.8,.96,1.59,.64,4.78,5.73,.32,8.44-4.14-.16-3.98-2.23-.8-5.57-4.14-2.87-.48-4.62,2.07-2.39-4.3-3.34-.64Zm-2.39,18.32l1.43-2.23,3.98-.48,.96,2.87-6.37-.16Zm-11.15-13.86l2.71,6.37,4.94-.96,.48-3.19-2.23-2.39-5.89,.16Zm-6.53-10.67l-1.75,3.82h7.96l7.65,2.55,3.98-2.55,.32-2.39-7.65,.32-10.51-1.75Zm-25.48-16.88l-3.03,3.34-4.62,.96,1.27,3.5,3.5,4.46,.16,1.59,3.34-.48,3.66,.16,2.71,1.91,5.57-1.27v-1.11l-1.59-1.27-.8-3.34-1.27-.48-.8,1.59-1.91-2.07,.32-2.23-2.87-5.26-1.75-1.11-1.91,1.11Zm-50.65-19.75l-6.69,4.62,.32,3.66,3.82,1.91,3.03,2.07,4.3,.64,4.14-3.5-.32-3.03,1.27-2.71v-2.23l-1.59-1.43h-8.28Zm-17.2,7.65l-.48,1.91-3.03,1.43-.96,2.87,1.59,1.27,1.75-2.39,3.03-.96,.64-4.14h-2.55Z"/><path class="cls-2" d="M263.28,283.85l-38.86-8.6,13.54-59.41,4.62-9.24,.64-3.34,1.27-1.43-1.43-3.19-4.62-1.91,.32-6.69,6.37-9.24,3.98-1.27,2.55-3.66-.16-2.55,2.87-2.55,5.1-8.76,6.69-7.65-.8-5.1-5.57-4.94-2.55-5.73,1.75-6.85-1.11-6.37,20.23-89.35,22.62,4.78-7.65,35.04,5.89,11.79-2.55,7.65,5.73,7.65,3.03,1.11,6.21,13.22v3.34l3.66,4.78h1.43l2.23,3.34h5.1v2.55l-11.31,27.08-.8,6.53,2.23,.8,2.55,4.14,4.46-2.23,5.73-3.82,3.03,3.03,.8,3.98-.8,5.1,3.98,15.45,4.14,5.57,3.66,2.23,.64,4.78v6.53l3.66,3.66,2.55-3.66,10.99,2.55,3.34-1.91,14.33,2.71,4.46-5.26,2.87-.96,1.91,2.87,2.55,6.53,1.43,.16-13.54,87.28-76.29-13.06-37.11-7.49Z"/><path class="cls-2" d="M993.07,415.73l-1.59,8.28v3.19l3.82,5.57v1.11l-.48,1.43,1.43,3.03-.48,3.82-2.55,2.87-2.07,6.69-6.05,8.44-.16,11.15h-1.59l1.43,3.03v1.43l-3.5,4.3,.16,1.75,2.39,3.5-.16,1.43-5.89,.96-.96,1.91-1.91-.96-1.59,.8-.64,5.26,2.71,2.87-.64,3.82-2.39,.48-10.99-4.78-6.37,5.89,.48,2.87h-4.46l-2.23-2.39-2.87-6.05v-3.03l1.27-.96,.16-2.07-2.71-3.03-1.43-3.98-4.3-6.53-7.65-2.07-11.79-11.31-.64-3.82,4.46-12.1-.64-3.03,1.91-1.75v-2.07l-4.46-2.39-4.78-1.11-5.42,1.91-2.07-3.66,.96-3.03-1.11-3.82-13.7-13.38-3.5-2.39-3.98-9.4-1.91-8.6,2.23-5.89,1.11-1.11,.16-3.66-1.11-1.43,1.59-2.39,2.87-.96,1.43-.48,1.59-1.91v-3.82l2.71-3.82,.8-.8,.16-5.57-1.43-2.23-1.59-.48-1.75-2.55,1.59-6.37,4.78-1.27h3.82l6.69-2.87,2.71-3.5,.16-3.82,1.75-2.07,2.07-5.1-.16-4.14-4.46-5.57h-1.91l-1.43-1.75,.32-2.55-2.71-2.71-3.98-2.07,.8-.96,73.11-4.46,.16,7.33,5.42,7.33,1.91,6.53,2.55,5.1,6.53,79.96Z"/><path class="cls-2" d="M1002.15,334.34l-8.12,3.66-7.49-2.23,6.53,79.96-1.59,8.28v3.19l3.82,5.57v1.11l-.48,1.43,1.43,3.03-.48,3.82-2.55,2.87-2.07,6.69-6.05,8.44-.16,11.15h-1.59l1.43,3.03,1.75,1.27,.96-1.59-1.11-2.71,7.33-.8,.32,1.91,1.75,.32,.64-1.43-.96-2.07,.48-1.27,2.07,1.27,2.71-.64,2.71,.96,5.42,3.34,2.87-4.46,5.57-3.5,4.78,5.26,2.55-3.34,.48-4.3,6.05-3.66,.32,2.07,3.03,1.91,4.78-.32,1.91-1.11,.16-5.42,3.98-5.89,7.33-7.01-.16-2.71,1.91-6.05,3.5,1.59,10.67-7.17-.64-2.71-2.39-3.34,1.59-3.03-10.51-91.1-.16-2.23-51.6,5.42-2.71,2.55Z"/><path class="cls-2" d="M887,283.69l3.34,2.55,.96,1.75-2.55,5.26-.16,3.98,3.19,8.76,4.3,2.39,5.26,1.11,2.07,4.46-.8,.96,3.98,2.07,2.71,2.71-.32,2.55,1.43,1.75h1.91l4.46,5.57,.16,4.14-2.07,5.1-1.75,2.07-.16,3.82-2.71,3.5-6.69,2.87h-3.82l-4.78,1.27-1.59,6.37,1.75,2.55,1.59,.48,1.43,2.23-.16,5.57-.8,.8-2.71,3.82v3.82l-1.59,1.91-1.43,.48-2.87,.96-1.59,2.39,1.11,1.43-.16,3.66-1.11,1.11-2.39-1.27-1.75-1.75-.96-2.55-2.71-2.07-22.78,1.27-43.32,1.91-41.25-.16-2.87-7.01,1.11-3.5-1.27-5.26,.32-4.62-2.07-1.11-.64-9.72-4.46-7.96-.32-5.89-3.5-6.85-2.07-5.89v-2.23l-.96-2.71v-3.66l-.8-1.43-1.11-2.71-.48-2.07-2.07-1.91,1.59-6.85,2.71-8.12-1.11-3.19-2.07-.64-.64-2.55,1.59-.8,.16-1.75-2.07-2.39,.16-2.55,3.5,.16h44.92l57.82-1.43,29.62-1.11,.32,4.14Z"/><path class="cls-2" d="M731.23,405.53l-69.6-1.91-57.34-3.19-7.65,106.71,107.83,4.62,98.75,.16-.8-76.61-5.1-1.11-4.14-7.49-3.98-3.98,.8-3.66,4.3-4.14,.16-1.91-2.39-3.34-1.43,1.59-3.19-.96-4.62-4.78h-51.6Z"/><path class="cls-2" d="M1102.34,505.88l-32.65,2.23-8.28,1.27-27.71,1.59-4.14,1.27-36,3.19-1.11-.96h-5.89l1.91,5.1-.96,1.43-37.11,2.39,1.59-4.3,2.23,1.43,1.11-.64,1.91-6.53-1.59-1.59,1.59-3.19,.32-1.43-2.07-1.27-.48-2.87,6.37-5.89,10.99,4.78,2.39-.48,.64-3.82-2.71-2.87,.64-5.26,1.59-.8,1.91,.96,.96-1.91,5.89-.96,.16-1.43-2.39-3.5-.16-1.75,3.5-4.3v-1.43l1.75,1.27,.96-1.59-1.11-2.71,7.33-.8,.32,1.91,1.75,.32,.64-1.43-.96-2.07,.48-1.27,2.07,1.27,2.71-.64,2.71,.96,5.42,3.34,2.87-4.46,5.57-3.5,4.78,5.26,2.55-3.34,.48-4.3,6.05-3.66,.32,2.07,3.03,1.91,4.78-.32,1.91-1.11,.16-5.42,3.98-5.89,7.33-7.01-.16-2.71,1.91-6.05,3.5,1.59,10.67-7.17-.64-2.71-2.39-3.34,1.59-3.03,2.07,.8,3.5,.16,3.03-1.27,4.62,1.91,3.5,5.42v1.59l6.53,1.11,3.66-.32,3.03,3.34,3.5,.32v-1.59l3.03-1.27,4.78,1.27,1.91,1.27,2.07-1.11h1.43l.96-2.71,5.42-2.87,.8,1.27,1.27,4.62,5.57,2.23,1.91,3.34-.16,1.75,.96,1.59-.96,5.73,3.03,2.55,1.27,1.75,1.59,.96-.16,1.43,7.01,8.92h2.23l2.39,2.87,1.91,.48,2.23-.16-7.8,10.51-4.62,1.59-4.78,4.78-.64,3.5-3.34,2.07-.16,2.71-2.23,2.23-2.87,.8-.8,3.03-1.59,.64-10.99,6.69-8.92,2.23Zm-156.09,18l-1.11-1.11,.32-1.59h1.75l1.11,1.11-.48,1.59h-1.59Z"/><path class="cls-2" d="M959.63,745.27l-1.91-2.87,.48-2.07-7.65-10.83,1.43-7.33,1.59-2.23,.16-2.23-57.34,3.19,2.71-18.95,3.82-7.65,9.56-13.38-2.87-3.98h3.19v-5.26l-3.82-3.98,.8-2.71-1.91-1.59-2.55-11.31,.96-2.23-83.3,2.07,.8,31.7,1.11,5.42,4.14,4.46,1.11,8.6,6.05,7.33,1.27,6.85h1.59l-.16,11.63-5.26,10.19,2.07,3.66-2.07,2.39,1.11,4.78-.16,6.85-3.5,5.57-.16,1.27-2.71,1.91,1.59,2.87,1.91,1.75,2.55-2.07,8.44-1.43,9.72-.16,15.29,6.05,12.74,1.59,2.39-2.23,2.87-.32,7.65,3.5,2.55-.64,1.75-2.39-6.69-2.87-3.5,1.59-1.75-.32-2.23-3.19,5.26-3.5,2.55-.16v2.71l2.39-.16,5.42-.48,.64,3.66,1.75,.64,.96,3.03,7.65,1.59,2.71,2.55v1.11h-1.91l-2.39,2.71,2.71,1.91,8.6,1.59,4.3,4.46,7.01-1.59-5.89,.32-.16-.96,4.46-1.11,.32-2.87,1.91-.48v-2.23l1.75,.16v2.55l3.98,.16,1.27-3.03,1.43,.48,.32,3.98,1.91,.32-2.87,3.19,4.14-1.43,3.19-1.75,4.62-5.26h-1.11l-2.07,1.91-.64-.16-.8-1.27,1.43-1.91v-3.66l1.75-1.27,1.11,1.11,1.59-1.27,1.59-.16,.96,2.07-.96,3.03h3.82l8.12,2.71,.8,2.07,2.55,2.23,4.46,.16,2.07,1.11,2.87-1.59,1.43-2.71v-2.71h-2.23l-1.91-2.23-1.75-1.75-5.1-1.43-4.14,.32-6.69-3.82v-3.66l2.07-1.59,3.82,.96-4.94-2.55,.32-1.27h5.73l4.14-5.57-4.14-2.87,1.27-2.39-1.91-1.27h-1.27l-3.19,3.34v3.34l-.96,1.11-1.75-.16-2.55-2.23h-2.07v-2.39l.96-1.11,1.27,1.11,2.71-2.55,1.11-2.55,1.27-.48-.96-1.12Zm-16.41-4.3l3.03,1.59,1.27,1.75,3.98,.16,2.39,1.27,.32,2.23-.64,.96-1.43-2.39-2.23,1.91-1.43,2.23-4.46,1.27-2.55,.16-5.89-1.59,.16-2.71,3.19-3.19,1.75-3.82,2.55,.16Zm-7.49,1.91v1.75l-2.87,3.19h-1.91v-3.5l2.55-2.39,2.23,.96Z"/><path class="cls-2" d="M1393.65,197.2l.96,6.37,5.1,3.19,1.27,3.5,3.66,2.23,2.23-.48,1.59-4.78-1.27-4.62,2.55-1.43,.8-4.46-.96-2.07,5.26-3.03-3.5-3.66,1.43-3.82,2.23-3.5,.8,5.1,2.55-3.19,2.07,1.43,1.91-1.27v-2.71l5.1-2.07,.48-4.62,3.98-.32,4.3-5.89v-1.11l-1.43-.8-.16-5.26,.96-1.75,.32,2.55,1.59-.8-.32-5.1-1.43,.48-.16,1.91-1.91-2.23,1.43-2.23,.96,.16,1.75-.64,.8,4.46,3.19-.48,4.62,1.11v-1.59l-1.75-1.91,2.07,.16,.16-3.66,.96,1.27,.48,3.03,3.34,2.39,.32-1.59,1.43-.32-.48-1.27,1.27-.96-.16-2.55-2.55-.32-3.19,1.11,2.23-2.55,1.11-1.27,2.07-.32,.64,2.07,2.71,2.55,.64-3.34,3.66-1.91-1.43-2.07,.16-2.71,1.75,.8h1.11l2.71-2.23,.64-3.66,3.5,.48,.16-1.11,.32-2.55,.8,2.23,2.39-1.59,3.66-6.53-.16-3.5-2.23-3.19-4.78-5.1h-3.03l-1.27,3.5-4.62-4.78,.48-1.27v-2.39l-2.55-7.17-1.27-.32-1.11,.64h-7.65l-.48-5.73-12.9-41.41-11.63-5.89-4.62-.16-10.67,10.51-4.3-1.59-1.59-6.21h-4.3l-10.99,31.06,1.11,9.87-2.71,3.82-.64,7.33,2.07,5.89,1.27,.32v2.55l-2.55,7.17-2.39,2.23-2.07,3.5-.64,12.42-3.82-1.59-2.39,.64,18.95,58.61Zm55.11-39.34l-1.59,1.27v2.07l1.11-1.27,1.43,1.27,.64-.8,1.75,.32-1.59-1.27,.64-1.27-2.39-.32Zm-2.71,4.14l-1.59,1.75,.8,.64-.16,1.59h1.75v-2.87l-.8-1.11Zm-4.78-2.55l1.43,2.07,1.59,.8,.48-1.59v-2.87l-2.07-1.11-.64,1.91-.8,.8Zm-1.59,7.96l-2.71-2.71,2.55-3.82,1.27,.48,.32,1.75,1.59,1.27v1.75l-1.59,1.59-1.43-.32Z"/><path class="cls-2" d="M1310.67,421.14v-2.71h-1.27v2.87l1.27-.16Zm18.79-6.21l1.91-3.5,.16-3.98-.96-.96-1.11,1.43-.32,3.34-1.27,2.23-.48,1.75-7.33,2.55-1.11,1.27-2.07,.32-.64,1.43-2.07,.96-.48-3.98,.64-1.11-1.27-.8,.32-2.39-2.55,1.59v-3.19l1.91-.48-3.03-.64-1.11-1.27,.64-2.07-1.27-.96-1.11,2.55,.8,1.27-1.11,.96-1.75,.8-3.19-1.59-.32-1.91-1.59-1.75-2.23-2.71,2.39-1.27-1.59-.96v-1.43l.96-1.59,2.71-.48-2.23-.96-.16-1.11-2.07-.16-.64,1.75-.96,.48,.16-5.42,1.59-1.59,1.27,1.11,.16-2.55-1.59-1.43-1.43,1.75-1.59,2.23-.96-1.59,.32-3.82,1.43-1.59,1.43,1.43,1.91-1.11-.64-2.71-1.59,1.59-1.43-3.34-.32-2.71,1.75-3.82,1.75-2.23,2.23-.32-.8-1.27,.8-.96-.48-1.11,.32-3.34-2.39,.64-1.27,1.75,1.59,2.07-4.14,5.73-1.43-.64-1.11,1.43-.96,3.5-2.87,.8,2.07,.96,2.07,2.07-.32,1.11,1.43,1.91-1.75,1.59,.8,.48-.8,2.07v3.34l-.8,2.07,1.43,1.75,1.11,5.42,2.07,2.23,2.55,2.23,.64,4.46,2.55,3.19,.64,2.23v1.59h-1.11l-2.39-1.91-.64,.32-1.91-.32-2.71-2.23-2.23-.48-1.59,.8-1.91-.48-.64,.32-2.71-1.27-1.59-1.59-1.59-2.07-.96-.32-1.27,1.11-2.55,2.07-1.75-1.27-.64-3.66,1.27-3.34-.48-.8,.48-.64-1.11-1.59,1.59-.16,1.59-1.43,.64-2.87,2.71-4.14-4.14-2.87-1.59,2.71-.96-.96h-1.59l-.96-.16-.64-.64,.16-.8-2.71-.96-1.27,.48-1.91-.16-1.11-1.11-.8-.32-.32-1.11,.96-1.27v-1.43l-1.91-.32-1.59-1.43-1.43,.16-2.55-.48-1.43-.64,.32-2.55-1.59-.8-.32-1.11h-1.11l-1.27-1.91,.32-1.59-4.14,.64-3.5-2.55-2.23,.48-1.43,2.23h-2.07l-2.71,4.62-5.26,.64-3.03-1.59-4.14,6.05-3.5-.48-4.94,6.21-1.43,2.55-2.87,2.55-2.71-18.16,96.36-18.79,12.1,43.16,17.36-3.66v8.44l-.16,4.94-1.59,2.87-.96,.48Zm-21.34-2.87l-2.07,1.43,1.27,2.87,2.71,1.27-.64-2.55-1.27-3.03Z"/><path class="cls-2" d="M1433.31,269.67h5.42l1.43-.96,.16-2.07-3.03-2.87,.64,1.59-2.39,2.39h-3.66l.16,1.27,1.27,.64Zm-14.33,2.87l-1.91-.96,1.59-1.27,.96-3.34,1.91-1.59,1.27-.32,.96,1.43,1.75,.32,.96-.96,.8,3.03-2.07,.48-4.46,1.11-1.75,2.07Zm-55.59-37.27l29.31-6.05,1.59-2.39,.48-2.71,3.03-.96,.8-1.75,2.71-1.75,2.07,.48,2.71,5.26,1.59,.64,1.75-2.07,1.27,2.07v1.75l-4.78,3.82,.32,1.27-1.43,1.59,.64,1.27-2.07,.48,1.43,1.91-1.27,1.11,.96,1.59,1.43-.32,.48-1.27,1.75,.96h2.87l3.98,4.14,.32,4.14,2.87,.16,1.27,1.75,.96,3.19,1.59,1.11h3.03l3.03-.16,1.27-1.43,2.55-1.91,1.75-.48-1.91-3.34-.48,1.43-2.39-5.73h-1.27l-.64,1.43-1.91-1.59,2.07-1.75,2.87,.64,3.66,3.34,2.07,4.3,1.91,5.26-1.59,4.46v-2.87l-1.11-1.59-5.57,3.66-1.43-.48-2.55,1.59-.16,1.91-3.5,1.91-3.19,3.34-3.19,3.03h-1.91l5.26-5.26,.8-3.03-.8-.96-.48-2.07-1.43-.16-.16,2.07-1.59,1.91h-1.91l-.48,1.75,.64,1.91-1.91,1.75-1.75-.32-.64,1.59-2.23-4.78-2.07-1.75-4.14-2.07-.96-3.5h-1.27l-1.11-4.14-10.35,3.19-.16-.48-23.73,5.42v1.11l-1.43,.48-.8-1.11-16.72,3.82-1.11-1.59,.8-23.89,19.75-4.3Z"/><path class="cls-2" d="M1056.46,326.37l.16,2.23,34.08-5.57,.8-1.91,6.21-9.4v-6.85l1.27-3.34,3.5-1.27,3.19-12.42,1.59-.8,1.59,.96-.32,.96-1.75,1.27,.48,1.43,1.27,.64,3.03-2.23,.64-15.61-2.55-3.66-1.91-5.89v-3.98l-3.66-7.01v-2.87l-1.91-5.26-3.66-4.78-4.62-1.59-7.65,4.78-3.98,7.33-.32,1.43-4.78,5.57-2.39-.32-4.62-4.46-.16-5.42,2.39-3.03,3.19-.32,1.91-2.71,.32-6.37,1.27-1.27,1.75-.16,1.43-2.71-.32-15.29-.48-2.07-1.91-1.91-2.71-1.59-.16-2.87,1.11-.96,2.87,1.27-.48-2.71-3.03-4.3-1.11-2.55-1.75-1.75h-3.5l-12.9-4.62-2.23-2.71-4.94-.48-1.91,.48-7.01-3.66h-2.23l.8,1.59-4.3-.16,.16,.96,.96,.96-3.98,3.34,.16,2.87,2.39,3.66,2.39,.32v.96l-2.39,.8-3.34-.16-4.46,3.98,.16,3.98,.64,9.24-3.5,5.42,1.27-7.17-1.27-.96-1.43,8.44-1.59-3.66,.8-3.66-.8-1.59,.96-2.07-.96-1.75,1.59-1.59v-1.91l-2.07,.96-2.07,4.94-1.11,1.11-2.07,3.82-2.71-.32-.16,1.91h-2.55l.32,2.39,.32,3.19-4.78,1.91,.16,2.07,1.59,2.71-.16,8.28-2.07,7.01-2.71,3.98,1.91,2.23,1.27,5.57-1.59,3.98-.32,3.34,2.71,5.42,3.98,7.8,1.91,3.03,2.55,10.99-.16,14.02-1.43,6.21-3.19,5.1-1.43,5.89-3.19,4.78-1.91,1.59,51.6-5.42Zm-152.58-154.18l4.78,6.05,27.08,6.05,2.23,1.59,6.37,1.27,1.11,.8,4.46-.32,7.8,1.27,2.23,2.39-1.59,1.59,1.27,1.27,6.05,1.11,1.91,1.91,.16,7.01-2.07,4.46,3.19,.16,1.59-1.27,1.43,1.27-1.75,4.94,1.59,2.55,1.91,.48,1.27-2.87,4.62-7.33,2.55-9.56,3.66-3.19-.8-2.55,.8-1.43,1.59,2.55-.48,3.5,4.62-3.5,.32-3.66,3.34,.96,1.27-2.55,1.11,.96-1.11,2.39-1.59,.8-1.59,3.19,2.23,2.87,1.75-.8-.8-1.11,1.59-2.39,3.03-2.71h1.27l.32-4.14,3.19-2.87,12.58-.8,3.03-4.94,6.05-.48,6.05,1.91,6.69,4.3,1.11-.32-.32-5.57,1.11-.32,7.17,1.75,2.39-.32,4.62-1.11,2.71,.64,2.87,.16v-1.75l-1.11-1.43-2.39-.32-1.75-1.27,.8-2.23-1.27-.48-4.14,.16-.16-1.59,1.75-1.27,.96,1.27,.8-2.87-1.11-1.11,1.11-.32-2.23-2.07,.48-2.07,.16-3.03h-2.07l-2.39,1.59-3.03,.16-.8,2.87-3.03,.32-.48-1.91-3.5,.16-1.59,1.91-1.11-.16-.32-1.27-4.14,.64-.16-7.65,1.59-3.19-1.11-.16-2.87,1.75h-3.5l-6.05,4.3-9.88,.48-6.53,1.27-3.03,2.39-2.23,2.07-3.98,2.71-.48,1.27-.96-2.71-2.07-.96v.96l1.11,1.11v2.07l-2.39-.96h-.96l-.48,1.91-3.19-3.03-2.07-.32-2.07,2.39-5.1-.16-.8-2.23-3.19-3.03-2.07-2.55v-1.11l-1.75-2.23-4.14-1.91-5.26-.16-1.75-1.43h-2.23l-1.11,.64-3.5,3.5-1.11,1.75-1.59-1.11,.32-1.59,1.27-3.34,5.1-7.96,1.27-.32,2.71-3.03,1.11-2.55,4.78-.96,1.27-.96-.16-1.59-.8-.8-7.17,.32-3.19,.8-4.14,1.91-1.91,1.91-2.71,3.5-2.87,1.59-5.26,5.42-.64,2.55-11.79,7.33-6.37,.8-2.87,.64-3.66,4.78-2.87,1.11-7.01,3.66,3.03,1.11Zm160.39,6.05l6.05,.16,.96-.8-.32-3.19-2.71-2.87-3.03,.16-.16,.8,1.75,.64-2.55,1.27-.48,1.59-.96-.96-.64,1.27,2.07,1.91Zm-119.61-66.74l-3.66,.32-4.3,3.03-11.31,8.44,1.27,1.59,2.87,.48,4.46-3.19-1.75-.8,3.66-2.55h1.59l4.78-3.03-.16-1.43,2.55-2.87Zm65.46,100.02v1.59l3.34,2.55-.32-3.82-3.03-.32Zm-1.11,4.46l1.75,.16v1.43h-1.59l-.16-1.59Zm34.08-33.93v1.43l1.27-.32v-.8l-1.27-.32Zm7.49,4.94l-.16-1.75-2.55-.32-.96-.64h-1.43l-.64,.48,1.43,.64,1.75,1.75,2.55-.16Zm-28.67,1.91l-.16,1.75-.48,1.11,.32,3.5,.64,.48,1.11,.16,.8-1.43,.16-2.55-.48-.96-.16-1.75-1.75-.32Z"/><path class="cls-2" d="M740.15,101.48l-1.75,4.46,1.27,2.23-.48,8.12-.8,1.75,4.3,14.49,2.07,3.98,1.11,22.3,1.59,4.3-.64,9.24,4.62,11.79,.48,9.24-.16,3.34-.16,3.5-1.43,3.19-4.94,3.03-.48,1.91,2.71,3.98,.64,2.87,4.14,.96,2.39,3.03-.32,62.91h44.92l57.82-1.43,29.62-1.11-1.75-7.17-.32-4.78-3.5-4.78-4.46-1.11-8.28-5.73-.96-5.26-10.03-4.94-.32-2.07h-5.26l-3.5-4.14-3.19-2.07,1.11-8.12-1.43-2.55,.8-8.6,1.59-2.87-.48-4.3-1.91-2.07-2.87-.48v-2.71l4.46-9.24,9.4-6.21-.64-20.71,1.43,.64,.96-.8,.16-1.75,1.43-.96,2.23,1.91,1.11-.16h0l-1.91-3.5,6.85-4.94,4.94-5.89,2.55-1.27,7.49-9.4,10.03-9.24,6.21-3.34,10.03-4.3,12.1-7.17-.96-.64-5.89,1.11-4.46,.16-1.59-2.55-2.23-1.43-15.61,1.91-1.59-4.46-2.55-.16-2.71,1.27-5.89,4.94h-6.53l-3.34-1.59-.48-2.71-6.21-1.27-.96-2.55-1.11-2.07-1.59,1.43-4.14,.16-15.77-8.76h-4.62l-1.27-1.11-4.94,2.07-1.27,2.07-5.26,1.27-2.07-.32v-2.71l-1.11-1.43h-9.4l-.64-2.23h-4.14l-1.75,.64-3.82-2.71,.48-2.23-.96-3.82-1.11-1.75-.32-4.78-1.59-4.94-3.34-2.55h-4.62l.16,12.74-49.22-.64,3.82,11.63Z"/><path class="cls-2" d="M993.55,738.58l-7.96,.16-3.82-2.39-12.58,3.98-1.43-1.11-.8,.32-.16,2.55-.96,.16-4.14,4.3-1.11-.16-.96-1.11-1.91-2.87,.48-2.07-7.65-10.83,1.43-7.33,1.59-2.23,.16-2.23-57.34,3.19,2.71-18.95,3.82-7.65,9.56-13.38-2.87-3.98h3.19v-5.26l-3.82-3.98,.8-2.71-1.91-1.59-2.55-11.31,.96-2.23,1.91-2.39,.8-4.78-2.39-3.66-.8-3.5,1.43-1.11v-1.27l-2.71-1.75-.16-1.11,2.55-1.43-1.91-1.75,2.71-11.31,5.42-2.55v-1.27l-1.75-2.23,4.62-8.6h3.03l2.39-1.91-.48-8.28,4.94-7.17,2.87-.96-.8-4.94,61-4.14,2.07,3.19-2.07,106.71,7.01,52.88-2.39,2.07Z"/><path class="cls-2" d="M884.45,388.65l-1.75-1.75-.96-2.55-2.71-2.07-22.78,1.27-43.32,1.91-41.25-.16,2.07,2.07-.48,2.23,3.34,5.89,6.21,10.03,4.62,4.78,3.19,.96,1.43-1.59,2.39,3.34-.16,1.91-4.3,4.14-.8,3.66,3.98,3.98,4.14,7.49,5.1,1.11,.8,76.61,.32,17.2,62.28-1.11,63.39-3.19,2.55,3.98v3.5l-2.71,2.39-4.46,8.12,17.84-1.27,1.59-3.19,1.91-.8v-1.11l-1.91-1.75-.96-1.59,2.71,.32,1.27-1.11-2.23-2.39,2.23-.8,.16-1.59-.96-1.59v-2.07l-1.11-1.11,.32-1.59h1.75l1.11,1.11-.48,1.59,1.27,1.11,1.27-1.59,1.59-4.3,2.23,1.43,1.11-.64,1.91-6.53-1.59-1.59,1.59-3.19,.32-1.43-2.07-1.27h-4.46l-2.23-2.39-2.87-6.05v-3.03l1.27-.96,.16-2.07-2.71-3.03-1.43-3.98-4.3-6.53-7.65-2.07-11.79-11.31-.64-3.82,4.46-12.1-.64-3.03,1.91-1.75v-2.07l-4.46-2.39-4.78-1.11-5.42,1.91-2.07-3.66,.96-3.03-1.11-3.82-13.7-13.38-3.5-2.39-3.98-9.4-1.91-8.6,2.23-5.89-2.39-1.27Z"/><path class="cls-2" d="M393.41,200.07l91.26,12.58,81.23,8.44,3.19-32.97,8.28-106.24-85.21-8.92-86.49-12.26-104.96-19.91-7.65,35.04,5.89,11.79-2.55,7.65,5.73,7.65,3.03,1.11,6.21,13.22v3.34l3.66,4.78h1.43l2.23,3.34h5.1v2.55l-11.31,27.08-.8,6.53,2.23,.8,2.55,4.14,4.46-2.23,5.73-3.82,3.03,3.03,.8,3.98-.8,5.1,3.98,15.45,4.14,5.57,3.66,2.23,.64,4.78v6.53l3.66,3.66,2.55-3.66,10.99,2.55,3.34-1.91,14.33,2.71,4.46-5.26,2.87-.96,1.91,2.87,2.55,6.53,1.43,.16,3.19-17.04Z"/><path class="cls-2" d="M641.08,296.59l60.52,2.55,5.42,5.1,2.71,.32,3.34,3.19,2.87-.16,2.87-3.19,2.39,.96,1.59-1.11,1.11,.8,1.43-.64,1.11,.64,1.43-.64,1.59,.8,2.23-.96,3.19,.96,.96,1.75,9.72,3.5,1.91,2.07,1.43,4.14,2.87,1.11,2.39-.32,.8,1.43v3.66l.96,2.71v2.23l2.07,5.89,3.5,6.85,.32,5.89,4.46,7.96,.64,9.72,2.07,1.11-.32,4.62,1.27,5.26-1.11,3.5,2.87,7.01,2.07,2.07-.48,2.23,3.34,5.89,6.21,10.03h-51.6l-69.6-1.91-57.34-3.19,2.23-35.2-52.72-3.82,5.89-70.4,81.39,5.57Z"/><path class="cls-2" d="M266.94,464.94l-5.42,27.87-3.82,4.62h-3.19l-1.91-4.3-5.89-2.23-5.57,.96-1.59,21.66,.8,7.8-.8,4.62-2.23,4.78-112.13-167.24-1.75-5.57,26.12-100.5,74.86,17.84,38.86,8.6,37.11,7.49-33.45,173.61Z"/><path class="cls-2" d="M1373.9,141.3l-2.07,.16-1.59-1.75-3.03,2.23-.8,9.72,1.91,3.66-1.75,5.57,3.34,4.46-.64,2.71,.16,2.07-1.75,3.34-2.23,.64-.96,2.07-3.34,1.59-1.11,2.39,2.23,5.42-.8,3.98,.8,2.39-1.59,3.03,.64,3.03-2.07,3.03,.32,3.5-1.11,1.75,1.11,7.17,1.11,2.39-.8,4.14,1.43,2.87-.32,3.98-.8,2.07-.16,2.23,3.34,4.14,29.31-6.05,1.59-2.39,.48-2.71,3.03-.96,.8-1.75,2.71-1.75,2.07,.48,1.27-7.65-3.66-2.23-1.27-3.5-5.1-3.19-.96-6.37-18.95-58.61-.8,2.71Z"/><path class="cls-2" d="M1341.88,303.44l-23.25-7.8-2.87,3.98,.16,3.5-4.78,8.6,2.39,2.87-1.11,3.19-1.59,1.59,.8,5.73,4.3,1.43,1.59,4.46,3.34,1.75,6.69,5.1-5.26,4.14-2.55,3.66-2.87,4.78-2.55,.96-2.23,2.71-1.59,3.5-.48,3.34,1.27,1.43,.64,3.66,1.91,.96,3.82,2.39,2.87,1.27,2.55,1.27,.16,1.75,1.27,.16,1.75-1.91,1.27,.64,3.34,.32-.32,4.62,.32,3.98,2.87-1.11,2.39-6.21,2.55-7.65,4.62-4.46,.96-5.57-.96-1.91,2.71-4.62v-1.91l-1.11-1.75,1.91-4.3-.48-5.73-.96-13.06-1.91-2.23v2.23l.8,.96h-1.75l-.96-.64-2.07-.32-1.43,.96-1.91-2.55,1.11-2.71v-1.59l2.71-1.11,1.27-3.34,.64-9.4Z"/><path class="cls-2" d="M569.4,522.44h-1.27l-12.58,158.16-50.65-4.14-54.79-5.73-.48,4.78,3.19,3.5-49.06-6.53-2.23,16.25-25.01-3.5,27.71-197.66,83.78,10.35,82.34,7.65-.96,16.88Z"/><path class="cls-2" d="M1390.3,281.46l-2.07,.16-.8,1.59,2.87-1.75Zm-48.74,36.16l1.11,.96,2.07-.48,1.75,.48,1.43-2.07h3.03l3.82-1.43,8.12-3.34-.8-.8-3.03,1.27-3.19,1.43,.32-1.27,4.14-1.75,1.27-1.59,1.91,.16,6.53-3.66v1.11l-6.69,4.78,7.17-4.46,2.71-3.5,2.39-.16,7.17-4.94,5.1-4.94,4.78-3.66,1.59-1.91-2.71-.16-1.59,1.91-.32,1.11-1.43,1.11-1.27-1.75-2.71,1.59-.16,1.43-1.43-.32,.8-1.43-1.91-1.11-.96,1.43,1.43,.48,.32,.8-.48,.8-2.23,4.14h-3.03l1.43-2.87,1.43-.96,.48-2.71,2.23-2.55,1.43-1.27,2.39-1.11-1.91-.32-1.11,1.43h-1.11l-1.75,1.27-.32,1.59-3.5,3.34-.64,1.43-2.23,1.43-12.26,3.03,.32,1.43-1.43,1.11-3.19,.48-1.59-.96-.32,1.75-1.75-.64,.16,1.59-1.91-.16-1.91,.8-.32,1.75h-1.59l.32,1.59h-1.11l.32,1.59-2.87,.64-2.39,3.66-.32,3.34Zm-1.27-.64l-2.55,.64v1.59l-1.11,2.55,.96,1.11,3.82-3.66-.16-1.43-.96-.8Zm-16.09-151.63l-.96,3.03,2.23,1.43-.64,2.39,.8,5.1,3.5,3.66-.64,3.5,.96,3.19-.64,1.59-.48,6.05,4.94,10.67-1.27,2.87,1.43,3.5,1.43-2.55,3.03,2.39,4.78,22.62-.8,3.19,1.75,1.59-.8,23.89,1.11,1.59,4.46,25.96,2.87,2.39-5.57,5.42,2.71,3.5-2.07,5.26-2.39,2.71-2.39,3.66-.32-1.11,.64-9.4-23.25-7.8-2.55-1.75-3.03,.48-4.78-3.5-4.78-9.24h-3.19l-.64-2.39-2.71-1.75-112.29,22.14-1.27-9.56,6.85-6.21,.96-2.71,6.21-3.98,.96-3.82,3.66-3.19,1.27-1.75-2.71-5.26-2.71-.8-2.87-4.78-.32-5.1,12.1-6.21,13.06-2.55h7.01l5.1,2.55,1.43-.16,2.87-2.55,5.42-1.11h4.78l4.14-2.07,3.98-4.14,3.82-4.94,3.03-.64,1.75-.8,.64-5.1-2.23-4.3-1.91-1.11,3.19-2.07-.16-2.87h-2.39l-3.66-2.23-.16-4.94,9.88-9.72,1.11-3.82,5.89-10.03,9.4-10.19,3.34-2.71,3.98,.16,32.81-8.28,1.27,2.71Z"/><path class="cls-2" d="M1320.38,470.2l-46.35,9.72-62.75,11.63-46.83,5.57v8.28l-2.39-.16-2.23,1.91-3.82,8.28-4.14-1.75-5.57,3.98-1.11,3.34-2.39,1.91-1.27-1.27-.16-2.39-1.27-.32-6.37,5.26-.96,5.42-7.49,3.82-.8,1.91-5.1,4.14-5.73,.8-7.33,4.78-1.27,6.53-2.07,1.43-2.39-.16-2.23,2.07-.16,7.8,34.08-4.78,7.01-3.03,2.07-.16,11.63-6.85,36.95-3.5,.64,.8-.32,2.23,1.11,.48,1.91-2.39,5.26,4.78,.16,4.14,31.38-4.46,39.02,27.24,6.37-3.5,4.78-1.11h2.71l1.75,1.75,1.27-3.19,.96-7.96,2.71-6.21,8.6-9.72,6.53-5.57,8.6-3.66,3.98-.64,2.07,.64,1.11,1.75,5.26-10.51,5.26-8.44-1.11-.48-7.01,10.83-.8-1.27,3.19-3.5-.64-2.39-3.19-.8,1.59,2.07-1.91,.16-1.91-2.87-1.91,3.19-2.55,.32,1.59-4.3,1.11-2.71-.32-4.62-3.5-.16,1.43-1.43,1.75,.48,4.3,.16,1.27-.8h3.66l3.19-3.03,.32-5.1,2.07-2.23,1.91-.32,2.07-1.59-.8-5.89-3.5-6.05-4.3-.32-1.43,2.55-.8-1.59-4.3,.32-1.91,.64-3.03,1.91-.48-.64h-1.43l-2.87,1.91-4.14,.8v-2.07l1.27-1.59,1.59,1.11h1.59l2.71-3.34,5.89-2.71,3.19-3.5h3.82l1.27,2.07,2.71,1.27-.8-2.39-.48-2.55-4.46-4.94-.48-2.23-.64,1.59-1.43-2.07-2.07-2.55Zm11.15,49.37l4.3-3.98,7.33-5.26v-5.89l-.64-4.94-2.71-6.69,2.39,2.23,1.59,5.1,.64,12.1-2.71,.64-4.94,3.82-5.1,5.1-.16-2.23Zm3.03-30.74l-1.43-.32v1.59l3.98,3.5-.32-2.23-2.23-2.55Zm4.62,3.34l-2.23-4.46-3.5-5.42-3.82-4.78-3.5-6.85-1.27-1.11,3.5,6.85,.48,2.07,5.42,8.76,2.87,3.34,2.07,1.59Z"/><path class="cls-2" d="M740.15,101.48l-1.75,4.46,1.27,2.23-.48,8.12-.8,1.75,4.3,14.49,2.07,3.98,1.11,22.3,1.59,4.3-.64,9.24,4.62,11.79,.48,9.24-.16,3.34-46.99-.64-73.27-3.34-62.44-4.62,8.28-106.24,70.88,5.42,88.08,2.55,3.82,11.63Z"/><path class="cls-2" d="M1092.14,324.78l3.03-.64,4.78,2.07,3.34,.96,1.11,1.43h1.59l1.59-2.39,2.07,1.27h2.39l-.16,1.59-4.94,.8-3.19,1.75,3.03,1.27,2.55-2.39,3.82-.64,3.5,2.39,2.39-.16,3.98-2.71,5.73-3.34,8.28-.48,7.8-9.4,6.05-4.94,14.81-8.12,7.8,47.62-3.5,1.91,2.23,3.34-.16,3.5,.96,3.19-1.75,5.42-.16,8.6-1.59,5.73,.8,1.75-.64,3.5-1.75,.8-3.19,5.26-2.87,3.19h-.96l-2.87,2.71-2.07-1.91-2.39,2.87-.48,1.91h-2.07l-2.07,3.5,.16,3.34-1.59,.8,2.23,1.75v3.03l-1.59,.32-1.11,1.27-1.59,.8-.96-3.34-2.55-.8-1.59,3.66-.48,3.5-1.75,2.07,2.07,5.73-2.39,1.27-.64,5.57h-2.39l-5.1,2.23-1.91-3.34-5.57-2.23-1.27-4.62-.8-1.27-5.42,2.87-.96,2.71h-1.43l-2.07,1.11-1.91-1.27-4.78-1.27-3.03,1.27v1.59l-3.5-.32-3.03-3.34-3.66,.32-6.53-1.11v-1.59l-3.5-5.42-4.62-1.91-3.03,1.27-3.5-.16-2.07-.8-10.51-91.1,34.08-5.57,1.43,1.75Z"/><path class="cls-2" d="M798.76,627.08l-7.33-6.05-3.5-1.43-.8,2.55-8.12,.48-.96-2.39-7.96,3.98-2.55-1.11-5.89,.48-.96,2.71-5.73,1.43-2.07-1.91-1.91,.16-3.19-2.87-3.34,1.11-3.19-.8-2.87-3.19-3.98,6.69-1.91,1.27-1.59-2.87,.48-3.19-1.91-1.11-3.66,3.98-2.71-1.91-.16-2.39-2.07,.8-4.14-2.71-4.78,4.14-3.66-1.75,1.11-3.34-3.66,.16-3.03-4.78-5.57-1.75-3.19,3.66-3.66-3.5-2.23,.64-3.19,.16-5.57-3.03-3.66,.16-1.91-1.11-.8-4.62-3.66-2.71-1.75,2.39-2.23-1.59-1.91-.64-1.75,1.59-2.39-.48-3.98-4.78-4.3-2.07,2.23-68.01-83.78-5.1,.96-16.88,26.28,1.59,107.83,4.62,98.75,.16,.32,17.2,6.53,38.86-1.11,62.12-10.19-3.03Z"/><path class="cls-2" d="M149.56,257.41l74.86,17.84,13.54-59.41,4.62-9.24,.64-3.34,1.27-1.43-1.43-3.19-4.62-1.91,.32-6.69,6.37-9.24,3.98-1.27,2.55-3.66-.16-2.55,2.87-2.55,5.1-8.76,6.69-7.65-.8-5.1-5.57-4.94-2.55-5.73-48.26-11.63-4.46,1.59-8.6-1.43-2.87-1.43-2.39,1.91-5.26-.64-7.17,.8-1.43,1.11-6.69-.64-1.27-2.55-1.91-.32-7.01,2.07-2.55-1.75-3.5,1.27-.32-2.87-3.66-1.91-2.39-.32-1.59-1.75-4.78,.48-1.91-1.27h-1.91l-1.91,1.43-8.76,1.11-10.51-6.69,1.75-8.92-.64-6.53-5.1-5.89-5.89,.16-.64-1.75,.64-1.91-1.11-1.27-1.59,.16-1.75,2.07-2.39-.32-.8-1.75-1.59-.16-1.11,.96-3.19-3.03v6.85l-2.07,2.07-1.75,5.57-.16,3.66-7.17,19.59-21.02,49.85-5.1,7.33-2.55-.16,.16,3.34-8.28,11.31-.48,5.26,1.59,2.07,.16,3.82-1.91,1.75-1.91,4.78,.16,9.08,1.91,4.62,105.28,29.62Z"/><path class="cls-2" d="M1316.08,293.88l-3.03,.48-4.78-3.5-4.78-9.24h-3.19l-.64-2.39-2.71-1.75-112.29,22.14-1.27-9.56-6.69,5.42-1.43,.16-4.3,4.78-5.26,2.71,7.8,47.62,5.1,31.38,27.71-4.62,96.36-18.79,1.91-3.34,2.39-1.75,2.55-.48,2.55,.96,2.23-2.71,2.55-.96,2.87-4.78,2.55-3.66,5.26-4.14-6.69-5.1-3.34-1.75-1.59-4.46-4.3-1.43-.8-5.73,1.59-1.59,1.11-3.19-2.39-2.87,4.78-8.6-.16-3.5,2.87-3.98-2.55-1.75Z"/><path class="cls-2" d="M1406.71,264.1l-2.07-1.75-4.14-2.07-.96-3.5h-1.27l-1.11-4.14-10.35,3.19,5.1,19.59-.64,1.75,.64,2.87,8.92-5.73,.16-4.78-1.27-1.27,.64-.96-.16-2.07-1.43-1.11,1.91-.64-1.43-2.55,2.87,1.11,.48,2.23,1.11,1.91-2.23-1.27,1.75,2.71-.48,1.91-.96-1.75v3.98l.96-1.43,.64,1.43,2.07-2.39-.32-3.98,2.23,4.94,1.59-1.43-2.23-4.78Zm-7.49,19.43h1.43l.8-.96-1.27-2.07-1.11,1.11,.16,1.91Z"/><path class="cls-2" d="M1230.07,550l-31.38,4.46-.16-4.14-5.26-4.78-1.91,2.39-1.11-.48,.32-2.23-.64-.8-36.95,3.5-11.63,6.85-2.07,.16-7.01,3.03-.16,3.03-3.03,1.59-2.23,5.1,.32,2.07,9.72,6.05,4.14-.48,4.94,6.37,.64,2.71,6.69,8.12,4.14,2.71,2.23,.32,3.5,2.55,1.75,3.5,3.19,2.55,2.87,.8,4.3,4.3,.16,2.23,4.14,4.46,7.96,3.66,5.73,10.67,.48,4.3,6.21,3.34,3.98,7.65,1.27,4.94,6.69,.64,1.27-2.39h.96l2.87-2.39,.8-3.19,5.1-3.34,.48-3.82-1.91-1.43,1.27-1.11,1.27,.64,2.07-.64,2.87-3.34,6.05-2.87,2.55-3.82,.16-1.11,7.65-7.01-.16-.8-1.43-1.27,1.75-2.39h1.27l.64,.8,1.11-1.27h2.07l.96-2.39,3.66-3.34-.48-8.6,1.27-3.66,5.73-9.88,3.82-3.5,3.5-1.75-39.02-27.24Z"/><path class="cls-2" d="M631.52,192.74l73.27,3.34,46.99,.64-.16,3.5-1.43,3.19-4.94,3.03-.48,1.91,2.71,3.98,.64,2.87,4.14,.96,2.39,3.03-.32,62.91-3.5-.16-.16,2.55,2.07,2.39-.16,1.75-1.59,.8,.64,2.55,2.07,.64,1.11,3.19-2.71,8.12-1.59,6.85,2.07,1.91,.48,2.07,1.11,2.71-2.39,.32-2.87-1.11-1.43-4.14-1.91-2.07-9.72-3.5-.96-1.75-3.19-.96-2.23,.96-1.59-.8-1.43,.64-1.11-.64-1.43,.64-1.11-.8-1.59,1.11-2.39-.96-2.87,3.19-2.87,.16-3.34-3.19-2.71-.32-5.42-5.1-60.52-2.55-81.39-5.57,6.21-69.92,3.19-32.97,62.44,4.62Z"/><path class="cls-2" d="M988.93,573.73l72.79-6.37,36.47-4.62,.16-7.8,2.23-2.07,2.39,.16,2.07-1.43,1.27-6.53,7.33-4.78,5.73-.8,5.1-4.14,.8-1.91,7.49-3.82,.96-5.42,6.37-5.26,1.27,.32,.16,2.39,1.27,1.27,2.39-1.91,1.11-3.34,5.57-3.98,4.14,1.75,3.82-8.28,2.23-1.91,2.39,.16v-8.28l.48-1.11-7.33,.8-.32,1.59-46.03,5.26-8.92,2.23-32.65,2.23-8.28,1.27-27.71,1.59-4.14,1.27-36,3.19-1.11-.96h-5.89l1.91,5.1-.96,1.43-37.11,2.39-1.27,1.59-1.27-1.11h-1.59v2.07l.96,1.59-.16,1.59-2.23,.8,2.23,2.39-1.27,1.11-2.71-.32,.96,1.59,1.91,1.75v1.11l-1.91,.8-1.59,3.19,.16,.96,2.23,1.59-.64,1.11h-2.39v.8l1.43,1.43,.16,1.27-2.23,.32-.8,1.27-2.55,.32-1.43,1.43,.96,1.43,1.75-.16,.8,1.43-2.55,2.07,.64,2.39-3.19-.96-.16,1.11,.64,1.75-.48,2.23-2.07-1.27-1.27,1.27,1.75,.16,.16,2.39-.96,1.59,1.75,1.43-.48,2.39,1.27,1.11-1.11,1.59-1.91-.8-1.43,3.5-2.55,1.11,61-4.14Z"/><path class="cls-2" d="M449.63,675.5l.48-4.78,54.79,5.73,50.65,4.14,12.58-158.16h1.27l83.78,5.1-2.23,68.01,4.3,2.07,3.98,4.78,2.39,.48,1.75-1.59,1.91,.64,2.23,1.59,1.75-2.39,3.66,2.71,.8,4.62,1.91,1.11,3.66-.16,5.57,3.03,3.19-.16,2.23-.64,3.66,3.5,3.19-3.66,5.57,1.75,3.03,4.78,3.66-.16-1.11,3.34,3.66,1.75,4.78-4.14,4.14,2.71,2.07-.8,.16,2.39,2.71,1.91,3.66-3.98,1.91,1.11-.48,3.19,1.59,2.87,1.91-1.27,3.98-6.69,2.87,3.19,3.19,.8,3.34-1.11,3.19,2.87,1.91-.16,2.07,1.91,5.73-1.43,.96-2.71,5.89-.48,2.55,1.11,7.96-3.98,.96,2.39,8.12-.48,.8-2.55,3.5,1.43,7.33,6.05,10.19,3.03,4.14,3.66,4.46-2.07,5.1,1.27,.32,18.95,.8,31.7,1.11,5.42,4.14,4.46,1.11,8.6,6.05,7.33,1.27,6.85h1.59l-.16,11.63-5.26,10.19,2.07,3.66-2.07,2.39,1.11,4.78-.16,6.85-3.5,5.57-.16,1.27-2.71,1.91,1.59,2.87,1.91,1.75-5.57,.48-13.38,6.21-5.57,2.23-2.87,2.87-1.11-.8,3.34-3.66,2.87-1.11,.8-1.43-4.62-.16-1.11-1.27,1.27-3.19-1.43-2.87h-.96l-3.82,2.07-3.03,4.14,.48,2.71,5.26,5.42,2.07,.48v1.27l-3.66,2.55-7.8,6.37-6.37,6.21-5.1,2.23-7.96,4.78-5.89,3.19-7.17,3.03-6.53,3.98,5.1-4.78v-1.75l.96-1.27-.32-2.87-2.39-.16-1.75,2.39-4.14,2.07-2.87-1.91-.48-2.71h-2.39l1.27,3.5,2.23,1.11,1.91,1.43,2.87,2.55-1.11,1.27-6.21,2.71-2.71,.16-1.91-1.91-.8,3.34,.8,1.75-4.3,3.19-2.39,.32-1.27,1.11-.64,2.71-2.87,5.26-2.55,1.11-2.55-.96-2.87,1.75,.48,2.23,2.07,1.27,1.59,1.27-2.87,5.57-.48,4.46-1.59,2.71-2.23,1.59-4.62,.64,2.87,.96,3.03-.96-.64,5.1-1.75-.16,.32,1.91,.48,2.23-2.07,1.43v4.94l2.55,2.23,.96,4.94-.64,3.5-1.59,.64,.64,2.39,1.75,.64,1.27,2.71v4.14l1.75,3.34,3.5,4.14-.16,1.11-3.5-.32-2.55,2.23,.32,2.23-1.43-.48-2.23-.32-5.42-5.89-3.66-.96h-11.31l-4.46-1.27-5.73-4.78-2.71-1.59-3.34,.16-5.1-4.14-8.6-2.55v-2.07l-2.23-2.87-1.43-7.49-1.75-2.71-2.71-2.23v-2.55l-2.23-.96,.96-4.14-.48-3.5-2.07-2.23,1.11-4.78-1.27-5.1-2.71-2.23h-1.75l-6.37-5.57,.16-3.03-1.27-2.71-1.27-.32-1.43-3.82-3.19-2.55-4.62-3.98-.32-3.34-1.59-1.11,.32-2.55,.8-1.11-2.23-2.39,.16-1.11-3.19-3.5,.16-3.34-4.3-7.8-.16-2.71-2.87-4.94-8.12-7.65v-1.75l-5.26-2.71-.16-2.87-1.91-.64v-1.11l-1.27-.32-3.34-4.46h-1.27l-1.11-.96-2.07,1.75h-3.5l-4.14-1.75h-7.33l-6.69-3.34-2.07,3.03-3.5-.96-5.26,1.91-2.71,4.46-3.19,5.1-1.75,7.01-2.23,1.91-1.75,.16-1.43,2.55-2.07,.96-.16,2.87-4.62,.16-2.87-2.39h-1.59l-3.19-4.62-5.73-.8-2.71-3.66-2.07-.32-3.34-1.27-5.42-5.42,.32-1.27-2.55-1.91-1.59-.16-5.42-4.94-.16-3.19-3.66-6.37,.32-2.55-1.11-2.07,1.27-2.39-.16-3.82-4.14-6.53-.96-6.69-2.55-2.55v-1.59l-1.91-.32-1.11-1.75-3.82-2.71-1.43-.16-3.03-2.55v-1.75l-4.62-2.87-.96-3.34-4.14-3.66-5.1-7.01-4.78-2.07-3.34-2.87,.32-1.91-2.07-2.23-2.71-5.89-3.82-1.59-3.19-3.5Zm278.57,220.28l1.27,.16-.96-7.65-5.57-19.59-.32-12.9,7.8-16.72,9.72-13.06,11.47-8.12v-1.11h-1.27l-4.14,1.59-5.73,3.66-1.11,2.39-13.06,18.48-4.46,12.58v14.02l5.73,19.11,.64,7.17Z"/><path class="cls-2" d="M371.43,339.28l5.26-34.88-76.29-13.06-33.45,173.61,73.58,13.06,63.71,9.56,18.32-140.64-51.13-7.65Z"/><path class="cls-2" d="M1368.32,155.31l-1.75,5.57,3.34,4.46-.64,2.71,.16,2.07-1.75,3.34-2.23,.64-.96,2.07-3.34,1.59-1.11,2.39,2.23,5.42-.8,3.98,.8,2.39-1.59,3.03,.64,3.03-2.07,3.03,.32,3.5-1.11,1.75,1.11,7.17,1.11,2.39-.8,4.14,1.43,2.87-.32,3.98-.8,2.07-.16,2.23,3.34,4.14-19.75,4.3-1.75-1.59,.8-3.19-4.78-22.62-3.03-2.39-1.43,2.55-1.43-3.5,1.27-2.87-4.94-10.67,.48-6.05,.64-1.59-.96-3.19,.64-3.5-3.5-3.66-.8-5.1,.64-2.39-2.23-1.43,.96-3.03-1.27-2.71,43.48-10.99,1.91,3.66Z"/><path class="cls-2" d="M1329.46,414.93l-1.75,4.46,.8,1.75,.64-1.75,1.27-4.94-.96,.48Zm-55.11-11.15l-1.11-1.59,1.59-.16,1.59-1.43,.64-2.87-.32-.8,.16-.8-.48-1.11-.96-.8-.64-.16-.8-.64-.96-.96h-1.59l-.96-.16-.64-.64,.16-.8-2.71-.96-1.27,.48-1.91-.16-1.11-1.11-.8-.32-.32-1.11,.96-1.27v-1.43l-1.91-.32-1.59-1.43-1.43,.16-2.55-.48-.64,1.11-.64,2.55-.8,3.66-15.93-8.28-.32,1.43,1.43,2.55-1.27,3.66,.16,4.62-1.91,1.27-.8,3.34-1.43,1.27-2.23,2.87-1.43,1.27-1.59,3.98-3.82-1.75-3.66,13.54-2.07,2.55-4.46-.8-2.07-3.03-3.66-1.11-.16,7.49-2.23,2.71,.64,2.39-3.34,3.5,.64,3.03-5.89,10.03-1.59,5.26,2.39,1.91-2.39,3.03,.16,2.23-3.66,3.19-1.11-1.75-6.85,4.94-2.39-1.59-.96,2.23,1.27,.8-.8,1.43-8.76,3.82-4.78-2.87-1.27,2.71-3.03,2.87-3.66,.16-7.01-3.66-.16-2.39-2.39-1.11,1.27-1.91-1.11-.96-7.8,10.51-4.62,1.59-4.78,4.78-.64,3.5-3.34,2.07-.16,2.71-2.23,2.23-2.87,.8-.8,3.03-1.59,.64-10.99,6.69,46.03-5.26,.32-1.59,7.33-.8-.48,1.11,46.83-5.57,62.75-11.63,46.35-9.72-.96-1.91,.64-.16,1.43,1.43-.16-2.23-.48-3.03,2.55,1.91,1.43,3.34v-2.07l-5.42-8.76v-1.91l-1.11-1.27-2.07,1.11,.8,2.23h-1.27l-.64-1.59-.96,1.43-1.43-1.75-3.34-.16-.32,1.11,2.39,3.34-2.23-1.11-.8-1.59-.64,1.27-1.27,.16-2.39,2.71,.48-2.55v-2.23l-2.39-1.11-2.87-.8-.32-2.71-.96-2.07-.96,1.75-2.71-1.59-3.19,.48,.32-1.43,2.39-.32,1.43,.8,2.71-1.27,1.43,.64,.8,1.59v1.11l3.03,.64,.48,1.43,1.43,.64,1.43,1.91,2.23-2.55h.96l-.16-3.34-2.07,1.59-.96-1.43,2.39-.32-1.91-1.43-1.91,.96-.16-2.71-2.71,.32-3.5-1.75-2.87-3.5,5.73,3.5,1.43,.48,2.71-1.27-2.71-1.43,.96-.96-1.59-.8,1.27-.32-.48-1.43,1.75,1.43,.64-1.27,.64,2.07,1.91,1.27,.96-.8-.8-.96-.16-3.98-1.75-.16-2.55-1.27,1.43-1.75-3.19-.16-.64-.8-2.23,.96-2.23-1.27-.8-1.91-3.34-1.91-3.34-2.87-3.5-3.03,4.78,2.07,1.43,1.91,3.34,1.11,3.66,3.98,.32-2.71,.96,2.07,3.66,.8v-6.37l-1.27-1.75,1.75,.64,.16-2.55-4.94-2.23-2.55-.32-2.07-.32,.48-1.91-2.39-.48-.16-.96h-2.87l-.32,1.27-1.11-1.59h-4.3l-1.59-.64-.32-1.59-1.91-.96-.64-2.39-.96-.64-1.11,1.75-1.43,.32-1.43,1.11h-2.39l-1.43-2.07,.64-4.94,.8-3.82,.96,.8,.48-.64Zm34.88,18.48l1.43-.16v-.96l-1.27,.16-.16,.96Zm11.95,22.62l-1.59,4.3,1.91-2.07-.32-2.23Zm-2.87-24.37l1.11,.48-.32,3.03-.8-.8-2.07,1.59,1.59,.64-2.87,7.01,.16,12.9,3.03,4.94,.8-2.39,.64-4.3-.48-3.66,1.11-1.43-.32-2.23,1.91-.96-.96-.8,.8-1.11,1.27,1.75-.32,1.75-.64,6.21,1.75-3.5,.64-4.94,.16-4.78-.48-3.19,.96-3.66,1.75-2.87,.16-3.5,.48-1.43-7.33,2.55-1.11,1.27-.64,1.43Z"/><path class="cls-2" d="M257.86,125.37l1.11,6.37-1.75,6.85-48.26-11.63-4.46,1.59-8.6-1.43-2.87-1.43-2.39,1.91-5.26-.64-7.17,.8-1.43,1.11-6.69-.64-1.27-2.55-1.91-.32-7.01,2.07-2.55-1.75-3.5,1.27-.32-2.87-3.66-1.91-2.39-.32-1.59-1.75-4.78,.48-1.91-1.27h-1.91l-1.91,1.43-8.76,1.11-10.51-6.69,1.75-8.92-.64-6.53-5.1-5.89-5.89,.16-.64-1.75,.64-1.91-1.11-1.27-1.59,.16-3.34-2.39-1.91,.64-3.19-.16-1.11-2.39-2.55-.48,3.98-11.95-1.11,9.56,.8,.8v-3.19l1.27-.32,1.75,3.66-.8-3.5,1.91-6.69,2.87,.64-1.75-3.19-1.59,.48-2.39-.64,.32-6.69,.32,2.39,1.43,.8,.96-2.55h5.1l-3.5-1.91-2.71-3.03-2.23,2.55,1.91-4.94-.48-7.33-.32-5.73,1.43-9.72-.8-3.19-2.23-3.34,.16-6.37,.64-4.3,3.19-3.66-1.11-2.23,.32-.96,1.43,.16,12.42,12.1,7.49,3.03,8.12,3.98,5.1-.16,.32,4.78,1.59-2.55h1.11l.96,4.3,.8-4.14,2.23-.32,.8,1.11-1.75,.96,.16,2.55,1.11-2.39h1.75l-.64,4.14-1.75-1.27,.64,2.23-.16,2.39-1.27,1.11-3.98,4.62,1.91-5.42-2.55,.64-.64,3.34-6.05,4.46-.64,1.59-3.34,3.5-.16,1.59h3.5l3.82-.32,.8-1.43-6.21,.8v-.96l4.14-4.46,2.87-1.27,3.03-.32,1.59-2.55,4.78-3.66v-2.23h1.75l.16,6.37h-2.39l-.96,1.27-1.75-1.43,.48,1.75v2.71l-1.11,1.11-.48-2.55-1.27,1.27,1.11,.96-1.43,1.75h2.07l1.11-.8,.16,3.19-1.59,3.03-1.43,1.59-.16,2.87-1.59-.32-.32-2.23,1.43-1.75-1.27-.8-1.27,1.11-1.11,3.5-1.27,1.43-.16-3.19,1.27-1.75-.32-1.75-1.91,1.91,.16,3.5-.96,.64-3.34-.64-2.07,1.91,3.5-.96-.32,3.5,1.59-2.87,.64,2.23,.8-1.59,1.11,2.87h1.11l1.11-1.27,.96-.16,3.19-3.03,.32-1.91,1.27,.96,.48,1.43,1.11-.48,.16-1.91h2.07l.32-4.62-.16-4.3,1.43,.48-1.11-3.34,2.23-1.27,.32-3.82,3.66-3.5,1.59,.16,.48-2.23-1.91-2.23-.16-5.57-1.27,1.43,1.11,4.62-.96,.16-.96-3.03-.96-.8,.48-3.66,2.87-.16,.48,1.11,.48-2.55-2.55-2.71-.96-2.55-.32,3.19,1.43,1.75-1.11,.64-1.59-1.27-2.87,2.07,2.39,.8,.32,3.82-.48,2.87,1.43-2.07,2.23,3.66-.64,3.03h-2.39v-1.91l-2.39-1.91,.8-4.78-3.03-4.14,4.3-4.78,.96-6.53h1.43l2.23,5.1v-4.14l1.91,.48v-5.26l-1.43-1.27-1.91,3.98-1.59-4.78,2.07-.16-2.39-7.8,3.03-.96,40.46,11.95,50.49,12.74,37.59,8.76-20.23,89.35Zm-125.35-62.75h.8l.16,1.27-.8,.48,.16,.96-1.11,.64-.32-1.43,.8-.64,.32-1.27Zm7.96-6.85l-1.91,3.03-.16,1.27,.64,.32,.8-.96,1.75,.16-1.11-3.82Zm-.64-34.4l.8,.96,2.07-.48,.32-1.59,1.91-2.87-1.59-.64-1.11,2.55-.16-2.55-1.75,.32-1.11,2.23,.64,2.07Zm5.1-8.76l1.11,2.39-1.43,.32-1.27,.64-.32-3.82,1.91,.48Zm-4.3-2.55l-1.75-.32,.8,2.23,.96-1.91Zm-1.59,3.98l1.27,.64-.64,1.75,2.71-.8-.32-3.5-1.43-.32-1.59,2.23Zm-4.3-.64l.48,4.3,2.55,2.07,.96-3.03-1.75-3.5-2.23,.16Zm3.03-1.75l-1.75-1.59-1.43,.16,2.87,2.39,.32-.96Zm5.1-11.15h-1.91V1.77l1.91,.96V.5Zm-1.43,51.76l.64-4.3h-1.75l-.32,3.03,1.43,1.27Z"/><path class="cls-2" d="M1152.19,466.06l-1.27,1.91,2.39,1.11,.16,2.39,7.01,3.66,3.66-.16,3.03-2.87,1.27-2.71,4.78,2.87,8.76-3.82,.8-1.43-1.27-.8,.96-2.23,2.39,1.59,6.85-4.94,1.11,1.75,3.66-3.19-.16-2.23,2.39-3.03-2.39-1.91,1.59-5.26,5.89-10.03-.64-3.03,3.34-3.5-.64-2.39,2.23-2.71,.16-7.49,3.66,1.11,2.07,3.03,4.46,.8,2.07-2.55,3.66-13.54,3.82,1.75,1.59-3.98,1.43-1.27,2.23-2.87,1.43-1.27,.8-3.34,1.91-1.27-.16-4.62,1.27-3.66-1.43-2.55,.32-1.43,15.93,8.28,.8-3.66,.64-2.55,.64-1.11-1.43-.64,.32-2.55-1.59-.8-.32-1.11h-1.11l-1.27-1.91,.32-1.59-4.14,.64-3.5-2.55-2.23,.48-1.43,2.23h-2.07l-2.71,4.62-5.26,.64-3.03-1.59-4.14,6.05-3.5-.48-4.94,6.21-1.43,2.55-2.87,2.55-2.71-18.16-27.71,4.62-5.1-31.38-3.5,1.91,2.23,3.34-.16,3.5,.96,3.19-1.75,5.42-.16,8.6-1.59,5.73,.8,1.75-.64,3.5-1.75,.8-3.19,5.26-2.87,3.19h-.96l-2.87,2.71-2.07-1.91-2.39,2.87-.48,1.91h-2.07l-2.07,3.5,.16,3.34-1.59,.8,2.23,1.75v3.03l-1.59,.32-1.11,1.27-1.59,.8-.96-3.34-2.55-.8-1.59,3.66-.48,3.5-1.75,2.07,2.07,5.73-2.39,1.27-.64,5.57h-2.39l-5.1,2.23-.16,1.75,.96,1.59-.96,5.73,3.03,2.55,1.27,1.75,1.59,.96-.16,1.43,7.01,8.92h2.23l2.39,2.87,1.91,.48,2.23-.16,1.11,.96Z"/><path class="cls-2" d="M973.16,221.57l-4.62,1.27,.32,3.66-3.82,5.42-.32,4.94,.96,1.11,1.27-1.11,.8-2.55,3.19-1.75,2.55-6.69,5.57-1.75,1.27-5.26,1.11-1.43,.64-3.34,2.87-1.75v-2.39l1.59-1.43,2.23,.16v3.19l-1.59,.16,.8,1.91-1.11,3.5-.96,.16-1.91,7.17-1.11,.8-4.46,11.47-.48,6.69,.96,3.19,.16,2.07-3.82,3.03,.48,3.03-1.43,4.94,.48,2.55,.64,5.89-1.75,6.53-2.39,7.96,1.59,2.39-.48,.48,1.27,2.71-.8,1.75,1.75,1.43v4.3l2.07,2.39-.64,4.78,.48,6.37-73.11,4.46-2.07-4.46-5.26-1.11-4.3-2.39-3.19-8.76,.16-3.98,2.55-5.26-.96-1.75-3.34-2.55-.32-4.14-1.75-7.17-.32-4.78-3.5-4.78-4.46-1.11-8.28-5.73-.96-5.26-10.03-4.94-.32-2.07h-5.26l-3.5-4.14-3.19-2.07,1.11-8.12-1.43-2.55,.8-8.6,1.59-2.87-.48-4.3-1.91-2.07-2.87-.48v-2.71l4.46-9.24,9.4-6.21-.64-20.71,1.43,.64,.96-.8,.16-1.75,1.43-.96,2.23,1.91,1.11-.16h4.14l10.83-4.14,.48-1.59h1.91l1.11-1.91,.64,1.27,2.87-1.43,2.87-2.71,.48,.8,1.59-1.59,3.5,2.55-1.27,2.55-1.91,2.23,.8,2.39-2.23,2.55,.64,1.43,3.66-1.75v-2.23l5.26,3.03,3.03,1.11,3.03,1.11,4.78,6.05,27.08,6.05,2.23,1.59,6.37,1.27,1.11,.8,4.46-.32,7.8,1.27,2.23,2.39-1.59,1.59,1.27,1.27,6.05,1.11,1.91,1.91,.16,7.01-2.07,4.46,3.19,.16,1.59-1.27,1.43,1.27-1.75,4.94,1.59,2.55,1.91,.48-.48,4.78Zm-78.84-59.41l-.8,.16-2.39,2.55,.32,.8,2.39-.96v-.96l1.43-.48-.96-1.11Zm2.55-1.75l-1.59,.48-.32,1.11,1.43-.16,.48-1.43Zm-2.07-2.55l-.32,1.43h2.71l.96-.64,.16-1.59-3.5,.8Zm4.46-4.78l-.48,3.03,1.91-.8,.16-2.23h-1.59Zm92.86,50.81l-3.19,.48-.64,2.07,2.07,2.71,1.75-5.26Z"/><path class="cls-2" d="M565.9,221.09l-81.23-8.44-91.26-12.58-3.19,17.04-13.54,87.28-5.26,34.88,51.13,7.65,71.51,9.08,59.73,5.42,5.89-70.4,6.21-69.92Z"/><path class="cls-2" d="M1279.77,393.59l-4.14-2.87-1.59,2.71,.8,.64,.64,.16,.96,.8,.48,1.11-.16,.8,.32,.8,2.71-4.14Z"/><path class="cls-3" d="M1095.17,704.81l-77.73,8.12-.8,4.62,3.98,4.46,2.71,1.11,1.43,1.91-.64,11.63-1.75,.96"/><path class="cls-3" d="M1061.72,567.36l20.55,72.95,4.62,9.72,2.87,3.03v5.1l2.71,1.59,.32,1.75-3.5,6.05-.48,5.89-.8,4.14,3.82,9.08-.96,10.03,.8,2.23,2.39,2.39,1.11,3.5"/><path class="cls-3" d="M988.93,573.73l2.07,3.19-2.07,106.71,7.01,52.88"/><path class="cls-3" d="M988.93,573.73l72.79-6.37"/><path class="cls-3" d="M822.97,651.93l83.3-2.07"/><path class="cls-3" d="M942.42,541.55l-17.84,1.27,4.46-8.12,2.71-2.39v-3.5l-2.55-3.98-63.39,3.19-62.28,1.11"/><path class="cls-3" d="M906.27,649.86l1.91-2.39,.8-4.78-2.39-3.66-.8-3.5,1.43-1.11v-1.27l-2.71-1.75-.16-1.11,2.55-1.43-1.91-1.75,2.71-11.31,5.42-2.55v-1.27l-1.75-2.23,4.62-8.6h3.03l2.39-1.91-.48-8.28,4.94-7.17,2.87-.96-.8-4.94"/><path class="cls-3" d="M808.95,630.11l1.11-62.12-6.53-38.86"/><path class="cls-3" d="M927.93,577.87l2.55-1.11,1.43-3.5,1.91,.8,1.11-1.59-1.27-1.11,.48-2.39-1.75-1.43,.96-1.59-.16-2.39-1.75-.16,1.27-1.27,2.07,1.27,.48-2.23-.64-1.75,.16-1.11,3.19,.96-.64-2.39,2.55-2.07-.8-1.43-1.75,.16-.96-1.43,1.43-1.43,2.55-.32,.8-1.27,2.23-.32-.16-1.27-1.43-1.43v-.8h2.39l.64-1.11-2.23-1.59-.16-.96"/><path class="cls-3" d="M808.95,630.11l4.14,3.66,4.46-2.07,5.1,1.27,.32,18.95"/><path class="cls-3" d="M237.32,530.72l-1.43,3.34,2.07,5.42,2.23,2.87,1.91,9.24,3.66,3.98,.64,3.03-2.07,2.07-7.65,2.71-3.82,5.73-2.55,11.15-3.82,5.1-2.55,.48-1.75,10.99,1.75,2.55,2.87,.32,1.59,2.55-1.27,3.82-4.78,3.5-3.5-.16"/><path class="cls-3" d="M404.24,487.56l-27.71,197.66"/><path class="cls-3" d="M266.94,464.94l-5.42,27.87-3.82,4.62h-3.19l-1.91-4.3-5.89-2.23-5.57,.96-1.59,21.66,.8,7.8-.8,4.62-2.23,4.78"/><path class="cls-3" d="M266.94,464.94l73.58,13.06,63.71,9.56"/><path class="cls-3" d="M149.56,257.41l-26.12,100.5,1.75,5.57,112.13,167.24"/><path class="cls-3" d="M44.28,227.78l105.28,29.62"/><path class="cls-3" d="M604.29,400.44l-7.65,106.71"/><path class="cls-3" d="M553.8,361.41l52.72,3.82-2.23,35.2"/><path class="cls-3" d="M404.24,487.56l83.78,10.35,82.34,7.65"/><path class="cls-3" d="M570.36,505.56l26.28,1.59"/><path class="cls-3" d="M422.55,346.92l-18.32,140.64"/><path class="cls-3" d="M422.55,346.92l71.51,9.08,59.73,5.42"/><path class="cls-3" d="M1343.95,265.05l16.72-3.82,.8,1.11,1.43-.48v-1.11l23.73-5.42,.16,.48"/><path class="cls-3" d="M1348.41,302.32l-2.71-3.5,5.57-5.42-2.87-2.39-4.46-25.96"/><path class="cls-3" d="M1386.8,255.82l5.1,19.59-.64,1.75,.64,2.87"/><path class="cls-3" d="M1277.06,397.73l2.71-4.14-4.14-2.87-1.59,2.71"/><path class="cls-3" d="M1274.03,393.43l.8,.64,.64,.16,.96,.8,.48,1.11-.16,.8,.32,.8"/><path class="cls-3" d="M1302.7,358.71l12.1,43.16,17.36-3.66"/><path class="cls-3" d="M1312.1,354.09l-1.59,3.5-.48,3.34"/><path class="cls-3" d="M1302.7,358.71l1.91-3.34,2.39-1.75,2.55-.48,2.55,.96"/><path class="cls-3" d="M1095.17,704.81l5.26,9.56,79.8-5.26,.96,5.1,1.59,1.75,3.34-.96,.8-6.85-2.23-3.34v-3.98l3.5-2.23,2.71,1.43,6.37,1.11,5.73-.48"/><path class="cls-3" d="M1098.19,562.74l34.08-4.78"/><path class="cls-3" d="M1132.28,557.96l-.16,3.03-3.03,1.59-2.23,5.1,.32,2.07,9.72,6.05,4.14-.48,4.94,6.37,.64,2.71,6.69,8.12,4.14,2.71,2.23,.32,3.5,2.55,1.75,3.5,3.19,2.55,2.87,.8,4.3,4.3,.16,2.23,4.14,4.46,7.96,3.66,5.73,10.67,.48,4.3,6.21,3.34,3.98,7.65,1.27,4.94,6.69,.64"/><path class="cls-3" d="M1061.72,567.36l36.47-4.62"/><path class="cls-3" d="M886.84,389.92l1.11-1.11,.16-3.66-1.11-1.43,1.59-2.39,2.87-.96,1.43-.48,1.59-1.91v-3.82l2.71-3.82,.8-.8,.16-5.57-1.43-2.23-1.59-.48-1.75-2.55,1.59-6.37,4.78-1.27h3.82l6.69-2.87,2.71-3.5,.16-3.82,1.75-2.07,2.07-5.1-.16-4.14-4.46-5.57h-1.91l-1.43-1.75,.32-2.55-2.71-2.71-3.98-2.07,.8-.96"/><path class="cls-3" d="M754.32,282.1h44.92l57.82-1.43,29.62-1.11"/><path class="cls-3" d="M771.68,385.31l41.25,.16,43.32-1.91,22.78-1.27,2.71,2.07,.96,2.55,1.75,1.75,2.39,1.27"/><path class="cls-3" d="M771.68,385.31l-2.87-7.01,1.11-3.5-1.27-5.26,.32-4.62-2.07-1.11-.64-9.72-4.46-7.96-.32-5.89-3.5-6.85-2.07-5.89v-2.23l-.96-2.71v-3.66l-.8-1.43"/><path class="cls-3" d="M754.16,317.46l-1.11-2.71-.48-2.07-2.07-1.91,1.59-6.85,2.71-8.12-1.11-3.19-2.07-.64-.64-2.55,1.59-.8,.16-1.75-2.07-2.39,.16-2.55,3.5,.16"/><path class="cls-3" d="M903.4,313.95l-2.07-4.46-5.26-1.11-4.3-2.39-3.19-8.76,.16-3.98,2.55-5.26-.96-1.75-3.34-2.55-.32-4.14"/><path class="cls-3" d="M300.71,40.8l-7.65,35.04,5.89,11.79-2.55,7.65,5.73,7.65,3.03,1.11,6.21,13.22v3.34l3.66,4.78h1.43l2.23,3.34h5.1v2.55l-11.31,27.08-.8,6.53,2.23,.8,2.55,4.14,4.46-2.23,5.73-3.82,3.03,3.03,.8,3.98-.8,5.1,3.98,15.45,4.14,5.57,3.66,2.23,.64,4.78v6.53l3.66,3.66,2.55-3.66,10.99,2.55,3.34-1.91,14.33,2.71,4.46-5.26,2.87-.96,1.91,2.87,2.55,6.53,1.43,.16"/><path class="cls-3" d="M224.42,275.25l38.86,8.6,37.11,7.49"/><path class="cls-3" d="M224.42,275.25l13.54-59.41,4.62-9.24,.64-3.34,1.27-1.43-1.43-3.19-4.62-1.91,.32-6.69,6.37-9.24,3.98-1.27,2.55-3.66-.16-2.55,2.87-2.55,5.1-8.76,6.69-7.65-.8-5.1-5.57-4.94-2.55-5.73"/><path class="cls-3" d="M376.68,304.39l-76.29-13.06"/><path class="cls-3" d="M278.09,36.02l-20.23,89.35,1.11,6.37-1.75,6.85"/><path class="cls-3" d="M390.22,217.11l-13.54,87.28"/><path class="cls-3" d="M986.54,335.77l6.53,79.96-1.59,8.28v3.19l3.82,5.57v1.11l-.48,1.43,1.43,3.03-.48,3.82-2.55,2.87-2.07,6.69-6.05,8.44-.16,11.15h-1.59l1.43,3.03"/><path class="cls-3" d="M955.48,505.88l-.48-2.87,6.37-5.89,10.99,4.78,2.39-.48,.64-3.82-2.71-2.87,.64-5.26,1.59-.8,1.91,.96,.96-1.91,5.89-.96,.16-1.43-2.39-3.5-.16-1.75,3.5-4.3v-1.43"/><path class="cls-3" d="M955.48,505.88h-4.46l-2.23-2.39-2.87-6.05v-3.03l1.27-.96,.16-2.07-2.71-3.03-1.43-3.98-4.3-6.53-7.65-2.07-11.79-11.31-.64-3.82,4.46-12.1-.64-3.03,1.91-1.75v-2.07l-4.46-2.39-4.78-1.11-5.42,1.91-2.07-3.66,.96-3.03-1.11-3.82-13.7-13.38-3.5-2.39-3.98-9.4-1.91-8.6,2.23-5.89"/><path class="cls-3" d="M903.4,313.95l73.11-4.46"/><path class="cls-3" d="M984.79,474.34l1.75,1.27,.96-1.59-1.11-2.71,7.33-.8,.32,1.91,1.75,.32,.64-1.43-.96-2.07,.48-1.27,2.07,1.27,2.71-.64,2.71,.96,5.42,3.34,2.87-4.46,5.57-3.5,4.78,5.26,2.55-3.34,.48-4.3,6.05-3.66,.32,2.07,3.03,1.91,4.78-.32,1.91-1.11,.16-5.42,3.98-5.89,7.33-7.01-.16-2.71,1.91-6.05,3.5,1.59,10.67-7.17-.64-2.71-2.39-3.34,1.59-3.03"/><path class="cls-3" d="M1004.86,331.79l51.6-5.42,.16,2.23"/><path class="cls-3" d="M1067.14,419.71l-10.51-91.1"/><path class="cls-3" d="M803.22,511.93l-.8-76.61-5.1-1.11-4.14-7.49-3.98-3.98,.8-3.66,4.3-4.14,.16-1.91-2.39-3.34-1.43,1.59-3.19-.96-4.62-4.78"/><path class="cls-3" d="M604.29,400.44l57.34,3.19,69.6,1.91h51.6"/><path class="cls-3" d="M596.64,507.15l107.83,4.62,98.75,.16"/><path class="cls-3" d="M950.39,523.4l1.59-4.3,2.23,1.43,1.11-.64,1.91-6.53-1.59-1.59,1.59-3.19,.32-1.43-2.07-1.27m-9.24,18l-1.11-1.11,.32-1.59h1.75l1.11,1.11-.48,1.59"/><path class="cls-3" d="M1067.14,419.71l2.07,.8,3.5,.16,3.03-1.27,4.62,1.91,3.5,5.42v1.59l6.53,1.11,3.66-.32,3.03,3.34,3.5,.32v-1.59l3.03-1.27,4.78,1.27,1.91,1.27,2.07-1.11h1.43l.96-2.71,5.42-2.87,.8,1.27,1.27,4.62,5.57,2.23,1.91,3.34"/><path class="cls-3" d="M950.39,523.4l37.11-2.39,.96-1.43-1.91-5.1h5.89l1.11,.96,36-3.19,4.14-1.27,27.71-1.59,8.28-1.27,32.65-2.23,8.92-2.23m-165.01,20.23h1.59"/><path class="cls-3" d="M1111.25,503.65l10.99-6.69,1.59-.64,.8-3.03,2.87-.8,2.23-2.23,.16-2.71,3.34-2.07,.64-3.5,4.78-4.78,4.62-1.59,7.8-10.51"/><path class="cls-3" d="M1129.73,437.23l-.16,1.75,.96,1.59-.96,5.73,3.03,2.55,1.27,1.75,1.59,.96-.16,1.43,7.01,8.92h2.23l2.39,2.87,1.91,.48,2.23-.16"/><path class="cls-3" d="M906.27,649.86l-.96,2.23,2.55,11.31,1.91,1.59-.8,2.71,3.82,3.98v5.26h-3.19l2.87,3.98-9.56,13.38-3.82,7.65-2.71,18.95,57.34-3.19-.16,2.23-1.59,2.23-1.43,7.33,7.65,10.83-.48,2.07,1.91,2.87,.96,1.11"/><path class="cls-3" d="M822.97,651.93l.8,31.7,1.11,5.42,4.14,4.46,1.11,8.6,6.05,7.33,1.27,6.85h1.59l-.16,11.63-5.26,10.19,2.07,3.66-2.07,2.39,1.11,4.78-.16,6.85-3.5,5.57-.16,1.27-2.71,1.91,1.59,2.87,1.91,1.75"/><path class="cls-3" d="M1363.39,235.27l29.31-6.05,1.59-2.39,.48-2.71,3.03-.96,.8-1.75,2.71-1.75,2.07,.48"/><path class="cls-3" d="M1343.95,265.05l-1.11-1.59,.8-23.89"/><path class="cls-3" d="M1386.8,255.82l10.35-3.19,1.11,4.14h1.27l.96,3.5,4.14,2.07,2.07,1.75,2.23,4.78"/><path class="cls-3" d="M1343.64,239.57l19.75-4.3"/><path class="cls-3" d="M1206.34,377.5l96.36-18.79"/><path class="cls-3" d="M1310.67,421.14l-1.27,.16m21.02-6.85l-.96,.48m-2.07,.32l-7.33,2.55-1.11,1.27m-44.92-25.64l-.96-.96h-1.59l-.96-.16-.64-.64,.16-.8-2.71-.96-1.27,.48-1.91-.16-1.11-1.11-.8-.32-.32-1.11,.96-1.27v-1.43l-1.91-.32-1.59-1.43-1.43,.16-2.55-.48m18.48,21.5l.48-.64-1.11-1.59,1.59-.16,1.59-1.43,.64-2.87"/><path class="cls-3" d="M1206.34,377.5l2.71,18.16,2.87-2.55,1.43-2.55,4.94-6.21,3.5,.48,4.14-6.05,3.03,1.59,5.26-.64,2.71-4.62h2.07l1.43-2.23,2.23-.48,3.5,2.55,4.14-.64-.32,1.59,1.27,1.91h1.11l.32,1.11,1.59,.8-.32,2.55,1.43,.64"/><path class="cls-3" d="M1404.64,212.49l-3.66-2.23-1.27-3.5-5.1-3.19-.96-6.37-18.95-58.61"/><path class="cls-3" d="M1056.62,328.6l34.08-5.57"/><path class="cls-3" d="M900.85,171.08l3.03,1.11,4.78,6.05,27.08,6.05,2.23,1.59,6.37,1.27,1.11,.8,4.46-.32,7.8,1.27,2.23,2.39-1.59,1.59,1.27,1.27,6.05,1.11,1.91,1.91,.16,7.01-2.07,4.46,3.19,.16,1.59-1.27,1.43,1.27-1.75,4.94,1.59,2.55,1.91,.48"/><path class="cls-3" d="M736.32,89.85l3.82,11.63-1.75,4.46,1.27,2.23-.48,8.12-.8,1.75,4.3,14.49,2.07,3.98,1.11,22.3,1.59,4.3-.64,9.24,4.62,11.79,.48,9.24-.16,3.34"/><path class="cls-3" d="M754.32,282.1l.32-62.91-2.39-3.03-4.14-.96-.64-2.87-2.71-3.98,.48-1.91,4.94-3.03,1.43-3.19,.16-3.5"/><path class="cls-3" d="M886.68,279.55l-1.75-7.17-.32-4.78-3.5-4.78-4.46-1.11-8.28-5.73-.96-5.26-10.03-4.94-.32-2.07h-5.26l-3.5-4.14-3.19-2.07,1.11-8.12-1.43-2.55,.8-8.6,1.59-2.87-.48-4.3-1.91-2.07-2.87-.48v-2.71l4.46-9.24,9.4-6.21-.64-20.71,1.43,.64,.96-.8,.16-1.75,1.43-.96,2.23,1.91,1.11-.16"/><path class="cls-3" d="M782.83,405.53l-6.21-10.03-3.34-5.89,.48-2.23-2.07-2.07"/><path class="cls-3" d="M803.22,511.93l.32,17.2"/><path class="cls-3" d="M942.42,541.55l1.59-3.19,1.91-.8v-1.11l-1.91-1.75-.96-1.59,2.71,.32,1.27-1.11-2.23-2.39,2.23-.8,.16-1.59-.96-1.59v-2.07m1.59,0l1.27,1.11,1.27-1.59"/><path class="cls-3" d="M927.93,577.87l61-4.14"/><path class="cls-3" d="M577.37,81.89l-8.28,106.24"/><path class="cls-3" d="M569.09,188.12l-3.19,32.97"/><path class="cls-3" d="M565.9,221.09l-81.23-8.44-91.26-12.58-3.19,17.04"/><path class="cls-3" d="M1132.28,557.96l7.01-3.03,2.07-.16,11.63-6.85,36.95-3.5,.64,.8-.32,2.23,1.11,.48,1.91-2.39,5.26,4.78,.16,4.14,31.38-4.46,39.02,27.24"/><path class="cls-3" d="M1164.45,497.12v8.28l-2.39-.16-2.23,1.91-3.82,8.28-4.14-1.75-5.57,3.98-1.11,3.34-2.39,1.91-1.27-1.27-.16-2.39-1.27-.32-6.37,5.26-.96,5.42-7.49,3.82-.8,1.91-5.1,4.14-5.73,.8-7.33,4.78-1.27,6.53-2.07,1.43-2.39-.16-2.23,2.07-.16,7.8"/><path class="cls-3" d="M1164.45,497.12l46.83-5.57,62.75-11.63,46.35-9.72"/><path class="cls-3" d="M569.09,188.12l62.44,4.62,73.27,3.34,46.99,.64"/><path class="cls-3" d="M559.69,291.02l81.39,5.57,60.52,2.55,5.42,5.1,2.71,.32,3.34,3.19,2.87-.16,2.87-3.19,2.39,.96,1.59-1.11,1.11,.8,1.43-.64,1.11,.64,1.43-.64,1.59,.8,2.23-.96,3.19,.96,.96,1.75,9.72,3.5,1.91,2.07,1.43,4.14,2.87,1.11,2.39-.32"/><path class="cls-3" d="M553.8,361.41l5.89-70.4"/><path class="cls-3" d="M1366.41,151.65l1.91,3.66-1.75,5.57,3.34,4.46-.64,2.71,.16,2.07-1.75,3.34-2.23,.64-.96,2.07-3.34,1.59-1.11,2.39,2.23,5.42-.8,3.98,.8,2.39-1.59,3.03,.64,3.03-2.07,3.03,.32,3.5-1.11,1.75,1.11,7.17,1.11,2.39-.8,4.14,1.43,2.87-.32,3.98-.8,2.07-.16,2.23,3.34,4.14"/><path class="cls-3" d="M1318.63,295.63l23.25,7.8-.64,9.4"/><path class="cls-3" d="M1312.1,354.09l2.23-2.71,2.55-.96,2.87-4.78,2.55-3.66,5.26-4.14-6.69-5.1-3.34-1.75-1.59-4.46-4.3-1.43-.8-5.73,1.59-1.59,1.11-3.19-2.39-2.87,4.78-8.6-.16-3.5,2.87-3.98"/><path class="cls-3" d="M570.36,505.56l-.96,16.88"/><path class="cls-3" d="M452.82,679.01l-3.19-3.5,.48-4.78,54.79,5.73,50.65,4.14,12.58-158.16h1.27"/><path class="cls-3" d="M149.56,257.41l74.86,17.84"/><path class="cls-3" d="M300.39,291.33l-33.45,173.61"/><path class="cls-3" d="M1318.63,295.63l-2.55-1.75-3.03,.48-4.78-3.5-4.78-9.24h-3.19l-.64-2.39-2.71-1.75-112.29,22.14-1.27-9.56"/><path class="cls-3" d="M1343.64,239.57l-1.75-1.59,.8-3.19-4.78-22.62-3.03-2.39-1.43,2.55-1.43-3.5,1.27-2.87-4.94-10.67,.48-6.05,.64-1.59-.96-3.19,.64-3.5-3.5-3.66-.8-5.1,.64-2.39-2.23-1.43,.96-3.03-1.27-2.71"/><path class="cls-3" d="M1173.53,350.74l-7.8-47.62"/><path class="cls-3" d="M1129.73,437.23l5.1-2.23h2.39l.64-5.57,2.39-1.27-2.07-5.73,1.75-2.07,.48-3.5,1.59-3.66,2.55,.8,.96,3.34,1.59-.8,1.11-1.27,1.59-.32v-3.03l-2.23-1.75,1.59-.8-.16-3.34,2.07-3.5h2.07l.48-1.91,2.39-2.87,2.07,1.91,2.87-2.71h.96l2.87-3.19,3.19-5.26,1.75-.8,.64-3.5-.8-1.75,1.59-5.73,.16-8.6,1.75-5.42-.96-3.19,.16-3.5-2.23-3.34,3.5-1.91"/><path class="cls-3" d="M569.4,522.44l83.78,5.1-2.23,68.01,4.3,2.07,3.98,4.78,2.39,.48,1.75-1.59,1.91,.64,2.23,1.59,1.75-2.39,3.66,2.71,.8,4.62,1.91,1.11,3.66-.16,5.57,3.03,3.19-.16,2.23-.64,3.66,3.5,3.19-3.66,5.57,1.75,3.03,4.78,3.66-.16-1.11,3.34,3.66,1.75,4.78-4.14,4.14,2.71,2.07-.8,.16,2.39,2.71,1.91,3.66-3.98,1.91,1.11-.48,3.19,1.59,2.87,1.91-1.27,3.98-6.69,2.87,3.19,3.19,.8,3.34-1.11,3.19,2.87,1.91-.16,2.07,1.91,5.73-1.43,.96-2.71,5.89-.48,2.55,1.11,7.96-3.98,.96,2.39,8.12-.48,.8-2.55,3.5,1.43,7.33,6.05,10.19,3.03"/><path class="cls-3" d="M257.23,138.59l-48.26-11.63-4.46,1.59-8.6-1.43-2.87-1.43-2.39,1.91-5.26-.64-7.17,.8-1.43,1.11-6.69-.64-1.27-2.55-1.91-.32-7.01,2.07-2.55-1.75-3.5,1.27-.32-2.87-3.66-1.91-2.39-.32-1.59-1.75-4.78,.48-1.91-1.27h-1.91l-1.91,1.43-8.76,1.11-10.51-6.69,1.75-8.92-.64-6.53-5.1-5.89-5.89,.16-.64-1.75,.64-1.91-1.11-1.27-1.59,.16"/><path class="cls-3" d="M1173.53,350.74l5.1,31.38,27.71-4.62"/><path class="cls-3" d="M559.69,291.02l6.21-69.92"/><path class="cls-3" d="M1111.25,503.65l46.03-5.26,.32-1.59,7.33-.8-.48,1.11"/><path class="cls-3" d="M376.68,304.39l-5.26,34.88,51.13,7.65"/><path class="cls-3" d="M1151.07,465.1l1.11,.96-1.27,1.91,2.39,1.11,.16,2.39,7.01,3.66,3.66-.16,3.03-2.87,1.27-2.71,4.78,2.87,8.76-3.82,.8-1.43-1.27-.8,.96-2.23,2.39,1.59,6.85-4.94,1.11,1.75,3.66-3.19-.16-2.23,2.39-3.03-2.39-1.91,1.59-5.26,5.89-10.03-.64-3.03,3.34-3.5-.64-2.39,2.23-2.71,.16-7.49,3.66,1.11,2.07,3.03,4.46,.8,2.07-2.55,3.66-13.54,3.82,1.75,1.59-3.98,1.43-1.27,2.23-2.87,1.43-1.27,.8-3.34,1.91-1.27-.16-4.62,1.27-3.66-1.43-2.55,.32-1.43,15.93,8.28,.8-3.66,.64-2.55,.64-1.11"/><path class="cls-1" d="M342.44,777.44v87.6l57.34,71.67M0,669.13H234.13l108.31,108.31h135.38l86.01,86.01v73.27"/><circle class="cls-6" cx="169.75" cy="52.21" r="16"/><circle class="cls-5" cx="1347.75" cy="228.21" r="16"/><circle class="cls-5" cx="1275.75" cy="361.21" r="16"/><circle class="cls-6" cx="810.75" cy="428.21" r="16"/><circle class="cls-6" cx="274.75" cy="93.21" r="16"/><circle class="cls-4" cx="1101.75" cy="291.21" r="16"/><circle class="cls-4" cx="1276.75" cy="562.21" r="16"/><circle class="cls-5" cx="70.75" cy="220.21" r="16"/><circle class="cls-6" cx="653.75" cy="476.21" r="16"/><circle class="cls-5" cx="910.75" cy="465.21" r="16"/><circle class="cls-5" cx="118.75" cy="544.21" r="16"/><circle class="cls-5" cx="693.75" cy="646.21" r="16"/><circle class="cls-5" cx="80.75" cy="297.21" r="16"/><circle class="cls-4" cx="1310.75" cy="336.21" r="16"/><circle class="cls-5" cx="1099.75" cy="598.21" r="16"/><circle class="cls-6" cx="94.75" cy="166.21" r="16"/><circle class="cls-4" cx="149.75" cy="313.21" r="16"/><circle class="cls-4" cx="831.75" cy="210.21" r="16"/><circle class="cls-4" cx="1016.75" cy="284.21" r="16"/><circle class="cls-4" cx="953.75" cy="275.21" r="16"/><circle class="cls-4" cx="1160.75" cy="483.21" r="16"/><circle class="cls-4" cx="1374.75" cy="252.21" r="16"/><circle class="cls-4" cx="1205.75" cy="536.21" r="16"/><circle class="cls-4" cx="1250.75" cy="401.21" r="16"/><circle class="cls-4" cx="1026.75" cy="425.21" r="16"/><circle class="cls-4" cx="953.75" cy="347.21" r="16"/><circle class="cls-5" cx="890.75" cy="459.21" r="16"/><circle class="cls-4" cx="721.75" cy="676.21" r="16"/><circle class="cls-4" cx="102.75" cy="125.21" r="16"/><circle class="cls-4" cx="256.75" cy="220.21" r="16"/><circle class="cls-4" cx="973.75" cy="263.21" r="16"/><circle class="cls-4" cx="964.75" cy="354.21" r="16"/><circle class="cls-4" cx="786.75" cy="455.21" r="16"/><circle class="cls-4" cx="960.75" cy="259.21" r="16"/><circle class="cls-5" cx="218.75" cy="493.21" r="16"/><circle class="cls-5" cx="58.75" cy="366.21" r="16"/><circle class="cls-5" cx="281.75" cy="544.21" r="16"/><circle class="cls-5" cx="672.75" cy="731.21" r="16"/><circle class="cls-6" cx="711.75" cy="546.21" r="16"/><circle class="cls-5" cx="898.75" cy="214.21" r="16"/><circle class="cls-5" cx="1279.75" cy="307.21" r="16"/><circle class="cls-5" cx="927.75" cy="286.21" r="16"/></svg>